<svg width="33" height="33" viewBox="0 0 33 33" fill="none" xmlns="http://www.w3.org/2000/svg">
<g clip-path="url(#clip0_2_116)">
<path d="M18.0469 -1.15706e-05C26.3033 -1.15706e-05 33 6.69667 33 14.9531C33 15.8103 32.3104 16.5 31.4531 16.5C30.5959 16.5 29.9062 15.8103 29.9062 14.9531C29.9062 8.40468 24.5953 3.09374 18.0469 3.09374C17.1896 3.09374 16.5 2.40409 16.5 1.54686C16.5 0.689637 17.1896 -1.15706e-05 18.0469 -1.15706e-05ZM18.5625 12.375C19.1095 12.375 19.6341 12.5923 20.0209 12.9791C20.4077 13.3659 20.625 13.8905 20.625 14.4375C20.625 14.9845 20.4077 15.5091 20.0209 15.8959C19.6341 16.2827 19.1095 16.5 18.5625 16.5C18.0155 16.5 17.4909 16.2827 17.1041 15.8959C16.7173 15.5091 16.5 14.9845 16.5 14.4375C16.5 13.8905 16.7173 13.3659 17.1041 12.9791C17.4909 12.5923 18.0155 12.375 18.5625 12.375ZM16.5 7.73436C16.5 6.87714 17.1896 6.18749 18.0469 6.18749C22.8873 6.18749 26.8125 10.1127 26.8125 14.9531C26.8125 15.8103 26.1229 16.5 25.2656 16.5C24.4084 16.5 23.7188 15.8103 23.7188 14.9531C23.7188 11.8207 21.1793 9.28124 18.0469 9.28124C17.1896 9.28124 16.5 8.59159 16.5 7.73436ZM7.57324 0.0902228C8.82363 -0.251379 10.132 0.386707 10.6283 1.58554L13.2064 7.77303C13.6447 8.82362 13.3418 10.0418 12.4588 10.7572L9.28125 13.3611C11.4275 17.8986 15.1014 21.5724 19.6389 23.7187L22.2363 20.5412C22.9582 19.6582 24.1699 19.3553 25.2205 19.7935L31.408 22.3717C32.6068 22.868 33.2449 24.1764 32.9033 25.4267L31.3564 31.0986C31.0535 32.2201 30.0352 33 28.875 33C12.9293 33 0 20.0707 0 4.12499C0 2.96483 0.779883 1.94647 1.90137 1.6371L7.57324 0.0902228Z" fill="white"/>
</g>
<defs>
<clipPath id="clip0_2_116">
<rect width="33" height="33" fill="white"/>
</clipPath>
</defs>
</svg>
