<svg width="33" height="33" viewBox="0 0 33 33" fill="none" xmlns="http://www.w3.org/2000/svg">
<g clip-path="url(#clip0_2_59)">
<path d="M18.0469 -0.000103123C26.3033 -0.000103123 33 6.69658 33 14.953C33 15.8102 32.3104 16.4999 31.4531 16.4999C30.5959 16.4999 29.9062 15.8102 29.9062 14.953C29.9062 8.40458 24.5953 3.09365 18.0469 3.09365C17.1896 3.09365 16.5 2.404 16.5 1.54677C16.5 0.689545 17.1896 -0.000103123 18.0469 -0.000103123ZM18.5625 12.3749C19.1095 12.3749 19.6341 12.5922 20.0209 12.979C20.4077 13.3658 20.625 13.8904 20.625 14.4374C20.625 14.9844 20.4077 15.509 20.0209 15.8958C19.6341 16.2826 19.1095 16.4999 18.5625 16.4999C18.0155 16.4999 17.4909 16.2826 17.1041 15.8958C16.7173 15.509 16.5 14.9844 16.5 14.4374C16.5 13.8904 16.7173 13.3658 17.1041 12.979C17.4909 12.5922 18.0155 12.3749 18.5625 12.3749ZM16.5 7.73427C16.5 6.87704 17.1896 6.1874 18.0469 6.1874C22.8873 6.1874 26.8125 10.1126 26.8125 14.953C26.8125 15.8102 26.1229 16.4999 25.2656 16.4999C24.4084 16.4999 23.7188 15.8102 23.7188 14.953C23.7188 11.8206 21.1793 9.28115 18.0469 9.28115C17.1896 9.28115 16.5 8.5915 16.5 7.73427ZM7.57324 0.0901312C8.82363 -0.25147 10.132 0.386616 10.6283 1.58544L13.2064 7.77294C13.6447 8.82353 13.3418 10.0417 12.4588 10.7571L9.28125 13.361C11.4275 17.8985 15.1014 21.5724 19.6389 23.7186L22.2363 20.5411C22.9582 19.6581 24.1699 19.3552 25.2205 19.7934L31.408 22.3716C32.6068 22.8679 33.2449 24.1763 32.9033 25.4267L31.3564 31.0985C31.0535 32.22 30.0352 32.9999 28.875 32.9999C12.9293 32.9999 0 20.0706 0 4.1249C0 2.96474 0.779883 1.94638 1.90137 1.63701L7.57324 0.0901312Z" fill="#003B46"/>
</g>
<defs>
<clipPath id="clip0_2_59">
<rect width="33" height="33" fill="white"/>
</clipPath>
</defs>
</svg>
