<svg width="259" height="41" viewBox="0 0 259 41" fill="none" xmlns="http://www.w3.org/2000/svg">
<path d="M65.8 8.2C65.64 9.34667 65.3333 10.32 64.88 11.12C64.4267 11.92 63.92 12.6133 63.36 13.2C62.8267 13.7867 62.3067 14.36 61.8 14.92C61.9867 15.16 62.1867 15.52 62.4 16C62.64 16.4533 62.76 17.1467 62.76 18.08C62.76 18.3467 62.7467 18.6267 62.72 18.92C62.6933 19.2133 62.6533 19.5467 62.6 19.92C62.5467 20.2667 62.3867 20.7867 62.12 21.48C61.88 22.1733 61.52 22.9467 61.04 23.8C60.56 24.6533 59.9333 25.4667 59.16 26.24C58.3867 27.0133 57.4533 27.6533 56.36 28.16C55.2933 28.6667 54.0267 28.92 52.56 28.92C51.6267 28.92 50.96 28.7333 50.56 28.36C50.16 28.0133 49.8133 27.68 49.52 27.36C49.44 27.3067 49.3733 27.24 49.32 27.16C49.2667 27.08 49.2 27 49.12 26.92C48.8267 27.3467 48.4667 27.7333 48.04 28.08C47.64 28.4267 47.1867 28.6 46.68 28.6C46.2 28.6 45.8267 28.4 45.56 28C45.2933 27.6 45.16 27.16 45.16 26.68C45.16 26.12 45.2933 25.5867 45.56 25.08C45.8533 24.5733 46.1467 24.24 46.44 24.08C46.5733 24 46.7067 23.9467 46.84 23.92C47 23.8933 47.1333 23.88 47.24 23.88C47.56 23.88 47.8533 23.9733 48.12 24.16C48.4667 24.4533 48.76 24.76 49 25.08C49.2667 24.3067 49.5333 23.4667 49.8 22.56C50.0667 21.6533 50.2933 20.84 50.48 20.12C50.6933 19.3733 50.8267 18.8667 50.88 18.6C50.7733 18.3867 50.6 18.1333 50.36 17.84C50.12 17.52 50 17.08 50 16.52C50 16.4133 50 16.3067 50 16.2C50.0267 16.0667 50.0533 15.9333 50.08 15.8C50.32 14.7333 50.7067 14.0133 51.24 13.64C51.8 13.24 52.28 12.9067 52.68 12.64C52.8667 11.6 53.0267 10.7867 53.16 10.2C53.2933 9.61333 53.4133 9.13333 53.52 8.76C53.6533 8.38667 53.7867 8 53.92 7.6C54.08 7.17333 54.28 6.61333 54.52 5.92C54.6533 5.84 54.7733 5.76 54.88 5.68C55.0133 5.6 55.12 5.56 55.2 5.56C55.36 5.56 55.4 5.72 55.32 6.04C55.1867 6.62667 55.0533 7.48 54.92 8.6C54.7867 9.72 54.6133 10.88 54.4 12.08C54.5333 12.0533 54.6933 12.04 54.88 12.04C55.0667 12.0133 55.2533 12 55.44 12C56.2133 12 57.0933 12.12 58.08 12.36C59.0933 12.6 59.9733 13.04 60.72 13.68C61.4133 12.88 62.0133 12.08 62.52 11.28C63.0267 10.48 63.4133 9.33333 63.68 7.84C63.7067 7.70667 63.72 7.58667 63.72 7.48C63.7467 7.34667 63.76 7.22667 63.76 7.12C63.76 6.16 63.4533 5.36 62.84 4.72C62.2533 4.08 61.5467 3.6 60.72 3.28C59.92 2.93333 59.1867 2.76 58.52 2.76C58.3333 2.76 57.9733 2.78667 57.44 2.84C56.9333 2.86667 56.3333 2.97333 55.64 3.16C54.9733 3.34667 54.2933 3.66667 53.6 4.12C52.9067 4.54667 52.2933 5.16 51.76 5.96C51.5733 6.28 51.3733 6.6 51.16 6.92C50.9467 7.21333 50.8133 7.64 50.76 8.2C50.76 8.36 50.8133 8.48 50.92 8.56C51.0533 8.61333 51.1867 8.62667 51.32 8.6C51.7733 8.49333 52.1333 8.24 52.4 7.84C52.4533 7.68 52.48 7.58667 52.48 7.56C52.48 7.42667 52.4533 7.30667 52.4 7.2C52.3733 7.06667 52.3467 6.94667 52.32 6.84V6.8C52.32 6.66667 52.36 6.54667 52.44 6.44C52.5467 6.30667 52.6667 6.24 52.8 6.24C52.96 6.24 53.12 6.34667 53.28 6.56C53.3333 6.66667 53.36 6.81333 53.36 7C53.36 7.29333 53.3067 7.62667 53.2 8C53.12 8.34667 53 8.58667 52.84 8.72C52.5467 8.96 52.2267 9.16 51.88 9.32C51.56 9.48 51.2533 9.56 50.96 9.56C50.6667 9.56 50.4 9.48 50.16 9.32C49.92 9.16 49.8 8.88 49.8 8.48C49.8 8.16 49.8667 7.81333 50 7.44C50.1333 7.06667 50.24 6.74667 50.32 6.48C50.5333 5.78667 51.0533 5.08 51.88 4.36C52.7067 3.64 53.72 3.02667 54.92 2.52C56.1467 2.01333 57.4267 1.76 58.76 1.76C60.1467 1.76 61.36 2.05333 62.4 2.64C63.4667 3.2 64.3067 3.93333 64.92 4.84C65.5333 5.72 65.84 6.64 65.84 7.6C65.84 7.70667 65.84 7.81333 65.84 7.92C65.84 8 65.8267 8.09333 65.8 8.2ZM59.72 14.48C59.1333 14.1067 58.6 13.76 58.12 13.44C57.6667 13.12 57.04 12.96 56.24 12.96C55.68 12.96 54.96 13.08 54.08 13.32C53.8933 14.2267 53.7067 15.0133 53.52 15.68C53.3333 16.3467 53.1333 17.08 52.92 17.88C52.92 17.88 52.9733 17.8933 53.08 17.92C53.2133 17.92 53.3733 17.92 53.56 17.92C53.8533 17.92 54.2133 17.8933 54.64 17.84C55.0667 17.7867 55.48 17.6667 55.88 17.48C57.0267 17 57.8267 16.52 58.28 16.04C58.76 15.5333 59.24 15.0133 59.72 14.48ZM52.36 14.04C52.1467 14.1467 51.9067 14.3467 51.64 14.64C51.3733 14.9333 51.1333 15.32 50.92 15.8C50.8133 16.04 50.8267 16.3067 50.96 16.6C51.12 16.8933 51.2933 17.1867 51.48 17.48C51.6933 16.68 51.8667 16.0133 52 15.48C52.16 14.9467 52.28 14.4667 52.36 14.04ZM60.52 20.2C60.6 19.9067 60.6667 19.5867 60.72 19.24C60.7733 18.8667 60.8 18.5067 60.8 18.16C60.8 17.7867 60.76 17.4267 60.68 17.08C60.6267 16.7333 60.52 16.44 60.36 16.2C59.6933 16.8133 58.9867 17.3333 58.24 17.76C57.4933 18.16 56.7867 18.44 56.12 18.6C55.1867 18.84 54.4267 18.9867 53.84 19.04C53.2533 19.0667 52.8133 19.0667 52.52 19.04C52.2267 19.8667 52 20.52 51.84 21C51.68 21.4533 51.5333 21.8667 51.4 22.24C51.2933 22.5867 51.1467 23.0133 50.96 23.52C50.9333 23.6267 50.7867 23.9067 50.52 24.36C50.28 24.7867 49.9867 25.32 49.64 25.96C50.0133 26.4667 50.4267 26.9067 50.88 27.28C51.3333 27.6267 52.0133 27.8 52.92 27.8C54.2 27.8 55.3333 27.44 56.32 26.72C57.3333 26 58.2 25.0667 58.92 23.92C59.64 22.7467 60.1733 21.5067 60.52 20.2ZM48.48 26.2C48.2133 25.9067 47.96 25.6667 47.72 25.48C47.48 25.2933 47.2667 25.2 47.08 25.2C46.92 25.2 46.8 25.2667 46.72 25.4C46.6133 25.5067 46.4933 25.7467 46.36 26.12C46.2267 26.4667 46.16 26.8 46.16 27.12C46.16 27.6267 46.3333 27.88 46.68 27.88C46.9733 27.88 47.2133 27.7733 47.4 27.56C47.5867 27.3467 47.8267 27.1067 48.12 26.84C48.12 26.84 48.16 26.7733 48.24 26.64C48.32 26.48 48.4 26.3333 48.48 26.2Z" fill="black"/>
<path d="M74.2922 23.12C73.9455 23.7067 73.5055 24.3467 72.9722 25.04C72.4389 25.7067 71.8789 26.28 71.2922 26.76C70.7322 27.24 70.1989 27.48 69.6922 27.48C68.8655 27.48 68.2122 27.44 67.7322 27.36C67.2789 27.2533 66.9055 27.1067 66.6122 26.92C66.1055 26.5733 65.6922 26.12 65.3722 25.56C65.0522 25 64.8655 24.4267 64.8122 23.84C64.7855 23.68 64.7722 23.52 64.7722 23.36C64.7722 23.2 64.7722 23.0533 64.7722 22.92C64.7722 21.3467 65.0789 19.96 65.6922 18.76C66.3055 17.56 67.1722 16.84 68.2922 16.6C68.6389 16.5467 68.9055 16.6933 69.0922 17.04C69.2789 17.36 69.3722 17.8 69.3722 18.36C69.3722 19.2133 69.1455 20.1333 68.6922 21.12C68.5055 21.52 68.3055 21.9067 68.0922 22.28C67.9055 22.6267 67.7455 22.9067 67.6122 23.12C67.2655 23.6267 66.9989 23.9733 66.8122 24.16C66.6522 24.32 66.5722 24.48 66.5722 24.64C66.5722 25.0667 66.8389 25.48 67.3722 25.88C67.9055 26.28 68.7322 26.48 69.8522 26.48C70.2789 26.48 70.7189 26.2933 71.1722 25.92C71.6255 25.5467 72.0655 25.08 72.4922 24.52C72.9455 23.96 73.3455 23.4 73.6922 22.84C73.8522 22.5733 73.9989 22.44 74.1322 22.44C74.2922 22.44 74.3722 22.56 74.3722 22.8C74.3722 22.9067 74.3455 23.0133 74.2922 23.12ZM68.2922 18.08C68.1855 17.92 67.9589 17.96 67.6122 18.2C67.2922 18.4133 66.9989 18.92 66.7322 19.72C66.5455 20.3067 66.4522 20.9867 66.4522 21.76C66.4522 21.9733 66.4522 22.1867 66.4522 22.4C66.4789 22.6133 66.5055 22.8267 66.5322 23.04C66.9855 22.2667 67.3055 21.6933 67.4922 21.32C67.7055 20.92 67.8655 20.5067 67.9722 20.08C68.0255 19.8667 68.1055 19.6 68.2122 19.28C68.3455 18.96 68.4122 18.68 68.4122 18.44C68.4122 18.28 68.3722 18.16 68.2922 18.08Z" fill="black"/>
<path d="M85.5978 24.88C85.6778 24.8 85.7845 24.76 85.9178 24.76C86.1045 24.76 86.1978 24.8533 86.1978 25.04C86.1978 25.1467 86.1312 25.3067 85.9978 25.52C85.8912 25.7333 85.6512 25.9867 85.2778 26.28C84.9045 26.6 84.5178 26.8933 84.1178 27.16C83.7445 27.4267 83.2245 27.56 82.5578 27.56C81.8378 27.56 81.2645 27.4267 80.8378 27.16C80.4378 26.8933 80.1445 26.6 79.9578 26.28C79.7978 25.9333 79.6912 25.6667 79.6378 25.48C79.3178 25.72 78.9845 26.04 78.6378 26.44C78.3178 26.8133 77.8512 27.16 77.2378 27.48C76.6245 27.7733 75.7445 27.92 74.5978 27.92C73.9578 27.92 73.3712 27.7733 72.8378 27.48C72.3312 27.16 72.0778 26.48 72.0778 25.44C72.0778 25.1467 72.0912 24.84 72.1178 24.52C72.1712 24.1733 72.2512 23.8 72.3578 23.4C72.6778 22.1467 73.0512 21.16 73.4778 20.44C73.9045 19.72 74.5445 19.1867 75.3978 18.84C75.9312 18.6267 76.5845 18.4267 77.3578 18.24C78.1312 18.0533 78.8112 17.8933 79.3978 17.76C79.5845 17.7067 79.7445 17.5333 79.8778 17.24C80.0378 16.92 80.2112 16.6267 80.3978 16.36C80.5045 16.2267 80.6245 16.12 80.7578 16.04C80.8912 15.9333 81.0378 15.88 81.1978 15.88C81.3312 15.88 81.5045 15.9467 81.7178 16.08C81.9045 16.2133 82.0245 16.4667 82.0778 16.84C82.1578 17.2133 82.1978 17.56 82.1978 17.88C82.1712 18.04 82.1045 18.24 81.9978 18.48C81.9178 18.6933 81.8512 18.9333 81.7978 19.2C81.7445 19.5467 81.6112 20.04 81.3978 20.68C81.1845 21.32 81.0778 21.8533 81.0778 22.28C81.0778 22.6533 81.0512 23.12 80.9978 23.68C80.9445 24.2133 80.9445 24.5867 80.9978 24.8C81.2912 25.44 81.7045 25.8667 82.2378 26.08C82.7712 26.2667 83.2378 26.32 83.6378 26.24C83.9312 26.1867 84.2645 26.0133 84.6378 25.72C85.0112 25.4267 85.3312 25.1467 85.5978 24.88ZM79.1178 20.32C79.0645 20.1067 78.9312 19.88 78.7178 19.64C78.5312 19.4 78.2912 19.28 77.9978 19.28C77.9445 19.28 77.8378 19.3067 77.6778 19.36C77.2245 19.52 76.7445 19.8267 76.2378 20.28C75.7312 20.7067 75.2912 21.2667 74.9178 21.96C74.5445 22.6533 74.3312 23.4667 74.2778 24.4C74.2778 24.6667 74.3578 25.0133 74.5178 25.44C74.7045 25.8667 74.9445 26.2267 75.2378 26.52C75.5312 26.8133 75.8245 26.8933 76.1178 26.76C76.7578 26.4933 77.2912 26.12 77.7178 25.64C78.1712 25.1333 78.5445 24.52 78.8378 23.8C78.9712 23.4533 79.0645 23.0933 79.1178 22.72C79.1978 22.32 79.2378 21.9467 79.2378 21.6C79.2378 21.28 79.2245 21.0133 79.1978 20.8C79.1712 20.56 79.1445 20.4 79.1178 20.32Z" fill="black"/>
<path d="M97.5963 25.48C96.9029 26.3067 96.3029 26.88 95.7963 27.2C95.2896 27.52 94.8496 27.68 94.4763 27.68C93.9963 27.68 93.5829 27.4933 93.2363 27.12C92.9163 26.72 92.6363 26.2933 92.3963 25.84C92.1829 25.3867 92.0096 25.0667 91.8763 24.88C91.3696 25.3333 90.7696 25.8133 90.0763 26.32C89.3829 26.8 88.8096 27.04 88.3563 27.04C87.5029 27.04 86.8363 26.8267 86.3563 26.4C85.8763 25.9467 85.6363 25.2933 85.6363 24.44C85.6363 23.56 85.7429 22.52 85.9563 21.32C86.1963 20.12 86.4896 18.9333 86.8363 17.76C87.1829 16.56 87.5163 15.56 87.8363 14.76C87.9163 14.52 88.0763 14.32 88.3163 14.16C88.5829 14 88.8496 13.92 89.1163 13.92C89.4363 13.92 89.6496 14 89.7563 14.16C89.8629 14.32 89.9163 14.5067 89.9163 14.72C89.9163 14.9867 89.8629 15.2533 89.7563 15.52C89.6763 15.76 89.6363 15.88 89.6363 15.88C89.3163 16.7867 88.9429 17.7333 88.5163 18.72C88.1163 19.7067 87.7429 20.8267 87.3963 22.08C87.3696 22.24 87.3296 22.4667 87.2763 22.76C87.2496 23.0533 87.2363 23.36 87.2363 23.68C87.2363 24.1333 87.2896 24.56 87.3963 24.96C87.5296 25.3333 87.7696 25.52 88.1163 25.52C88.4096 25.52 88.7963 25.3467 89.2763 25C89.7829 24.6533 90.2896 24.1733 90.7963 23.56C91.3029 22.9467 91.7029 22.24 91.9963 21.44C92.2629 20.72 92.5029 19.9333 92.7163 19.08C92.9296 18.2267 93.1163 17.4267 93.2763 16.68C93.4629 15.9067 93.6363 15.3067 93.7963 14.88C93.8763 14.6933 93.9963 14.6 94.1563 14.6C94.3696 14.6 94.5563 14.68 94.7163 14.84C94.9029 15 94.9696 15.1467 94.9163 15.28C94.8096 15.5467 94.6629 15.9867 94.4763 16.6C94.2896 17.2133 94.1029 17.8933 93.9163 18.64C93.7296 19.3867 93.5563 20.12 93.3963 20.84C93.2363 21.5333 93.1029 22.12 92.9963 22.6C92.8896 23.08 92.8363 23.3467 92.8363 23.4C92.8363 23.8 92.8763 24.16 92.9563 24.48C93.0363 24.8 93.1696 25.1467 93.3563 25.52C93.4896 25.7333 93.6496 25.9733 93.8363 26.24C94.0496 26.48 94.2629 26.6 94.4763 26.6C94.9829 26.6 95.4629 26.4267 95.9163 26.08C96.3963 25.7067 96.7563 25.3467 96.9963 25C97.1829 24.7067 97.3563 24.56 97.5163 24.56C97.6763 24.56 97.7563 24.7067 97.7563 25C97.7563 25.2133 97.7029 25.3733 97.5963 25.48Z" fill="black"/>
<path d="M107.921 12.2C107.921 12.2 107.921 12.2933 107.921 12.48C107.947 12.6667 107.894 12.8933 107.761 13.16C107.627 13.4267 107.334 13.6933 106.881 13.96C106.721 14.0667 106.427 14.1467 106.001 14.2C105.574 14.2533 105.094 14.2933 104.561 14.32C104.267 15.0933 103.947 15.88 103.601 16.68C103.254 17.4533 102.894 18.1867 102.521 18.88C101.961 19.9467 101.481 20.7333 101.081 21.24C100.707 21.7467 100.414 22.1333 100.201 22.4C99.9873 22.64 99.8406 22.9333 99.7606 23.28C99.734 23.44 99.7073 23.5867 99.6806 23.72C99.6806 23.8533 99.6806 23.9867 99.6806 24.12C99.6806 25.1067 99.9606 25.8267 100.521 26.28C101.107 26.7333 101.667 26.96 102.201 26.96C102.814 26.96 103.427 26.7467 104.041 26.32C104.654 25.8667 105.161 25.4533 105.561 25.08C105.881 24.8133 106.121 24.68 106.281 24.68C106.387 24.68 106.441 24.7333 106.441 24.84C106.441 25.0267 106.294 25.32 106.001 25.72C105.841 25.9333 105.574 26.2267 105.201 26.6C104.827 26.9733 104.361 27.32 103.801 27.64C103.241 27.9333 102.614 28.08 101.921 28.08C100.534 28.08 99.6006 27.76 99.1206 27.12C98.6673 26.48 98.4406 25.4133 98.4406 23.92C98.4406 22.7467 98.5606 21.3067 98.8006 19.6C99.0406 17.8667 99.414 16.04 99.9206 14.12C99.7873 14.12 99.654 14.12 99.5206 14.12C99.3873 14.0933 99.2673 14.08 99.1606 14.08C98.814 14.08 98.5473 14.1333 98.3606 14.24C98.2006 14.32 98.0673 14.36 97.9606 14.36C97.694 14.36 97.5606 14.16 97.5606 13.76C97.5606 13.3067 97.6806 12.96 97.9206 12.72C98.1073 12.5333 98.4273 12.44 98.8806 12.44C99.2273 12.44 99.694 12.5067 100.281 12.64C100.334 12.48 100.387 12.3333 100.441 12.2C100.494 12.0667 100.534 11.9333 100.561 11.8C100.614 11.5333 100.667 11.32 100.721 11.16C100.774 11 100.841 10.8 100.921 10.56C101.374 9.2 101.867 7.89333 102.401 6.64C102.934 5.38667 103.707 4.26667 104.721 3.28C104.907 2.98667 105.161 2.84 105.481 2.84C105.721 2.84 105.934 2.94667 106.121 3.16C106.307 3.34667 106.387 3.57333 106.361 3.84C106.361 3.84 106.347 4.17333 106.321 4.84C106.294 5.50667 106.241 6.32 106.161 7.28C106.081 8.21333 105.961 9.10667 105.801 9.96C105.721 10.4667 105.601 11.0133 105.441 11.6C105.307 12.16 105.134 12.7333 104.921 13.32C105.081 13.3467 105.227 13.3733 105.361 13.4C105.521 13.4 105.667 13.4 105.801 13.4C106.201 13.4 106.507 13.3467 106.721 13.24C106.961 13.1067 107.094 12.9733 107.121 12.84C107.174 12.7067 107.201 12.64 107.201 12.64C107.201 12.1067 107.334 11.84 107.601 11.84C107.734 11.84 107.841 11.96 107.921 12.2ZM105.081 5.52C104.921 5.49333 104.667 5.8 104.321 6.44C103.974 7.08 103.601 7.92 103.201 8.96C102.801 10 102.414 11.1067 102.041 12.28C102.014 12.3867 101.987 12.4933 101.961 12.6C101.934 12.68 101.907 12.7733 101.881 12.88C102.067 12.9333 102.254 12.9733 102.441 13C102.627 13.0267 102.827 13.0667 103.041 13.12C103.147 13.1467 103.267 13.16 103.401 13.16C103.534 13.16 103.654 13.1867 103.761 13.24C103.867 12.9467 103.961 12.6933 104.041 12.48C104.121 12.24 104.201 12.0267 104.281 11.84C104.574 10.8533 104.814 9.84 105.001 8.8C105.187 7.76 105.281 6.94667 105.281 6.36C105.281 5.88 105.214 5.6 105.081 5.52ZM103.321 14.32H102.601C102.414 14.32 102.227 14.32 102.041 14.32C101.881 14.32 101.721 14.3067 101.561 14.28C101.321 15.2933 101.081 16.3867 100.841 17.56C100.627 18.7067 100.454 19.7333 100.321 20.64C100.641 20.2667 100.974 19.7333 101.321 19.04C101.667 18.3467 102.014 17.5867 102.361 16.76C102.707 15.9067 103.027 15.0933 103.321 14.32Z" fill="black"/>
<path d="M115.954 16.16C116.114 16.4 116.194 16.6667 116.194 16.96C116.194 17.5467 115.994 18.2933 115.594 19.2C115.221 20.08 114.834 21.0533 114.434 22.12C114.034 23.1867 113.821 24.28 113.794 25.4C113.768 26.84 113.741 28.32 113.714 29.84C113.714 31.36 113.541 32.84 113.194 34.28C112.874 35.7467 112.194 37.08 111.154 38.28C110.301 39.2667 109.394 39.9333 108.434 40.28C107.501 40.6533 106.514 40.84 105.474 40.84C105.288 40.84 105.088 40.8267 104.874 40.8C104.661 40.8 104.448 40.7867 104.234 40.76C103.728 40.7067 103.181 40.4667 102.594 40.04C102.008 39.6133 101.501 39 101.074 38.2C100.648 37.4 100.434 36.4267 100.434 35.28C100.434 34.88 100.474 34.44 100.554 33.96C100.688 33.16 100.888 32.3467 101.154 31.52C101.421 30.72 101.808 30.0533 102.314 29.52C102.821 28.9867 103.501 28.72 104.354 28.72C105.048 28.72 105.701 28.9733 106.314 29.48C106.928 30.0133 107.434 30.6133 107.834 31.28C108.261 31.9467 108.541 32.5333 108.674 33.04C108.754 33.36 108.821 33.6933 108.874 34.04C108.954 34.4133 108.994 34.7733 108.994 35.12C108.994 35.7333 108.874 36.16 108.634 36.4C108.368 36.6933 108.034 36.84 107.634 36.84C107.341 36.84 106.994 36.76 106.594 36.6C106.328 36.5467 106.008 36.36 105.634 36.04C105.288 35.7467 105.114 35.36 105.114 34.88C105.114 34.56 105.181 34.2533 105.314 33.96C105.474 33.6667 105.608 33.4667 105.714 33.36C105.928 33.2 106.074 33.12 106.154 33.12C106.288 33.12 106.381 33.2933 106.434 33.64V33.68C106.434 33.7867 106.381 33.8933 106.274 34C106.168 34.1067 106.128 34.2933 106.154 34.56C106.208 34.9333 106.354 35.2 106.594 35.36C106.834 35.5467 107.008 35.64 107.114 35.64C107.461 35.64 107.634 35.2933 107.634 34.6C107.634 34.04 107.474 33.36 107.154 32.56C106.888 31.8933 106.514 31.32 106.034 30.84C105.554 30.36 104.994 30.0667 104.354 29.96C104.034 29.9067 103.688 29.9867 103.314 30.2C102.914 30.4133 102.568 30.8267 102.274 31.44C102.088 31.7867 101.968 32.1733 101.914 32.6C101.834 33.0267 101.794 33.4667 101.794 33.92C101.794 34.4267 101.834 34.9067 101.914 35.36C101.968 36.8267 102.354 37.8933 103.074 38.56C103.768 39.2533 104.688 39.6 105.834 39.6C105.994 39.6 106.154 39.5867 106.314 39.56C106.501 39.56 106.688 39.5467 106.874 39.52C107.674 39.4133 108.448 39.0133 109.194 38.32C109.941 37.6267 110.568 36.8267 111.074 35.92C111.501 35.1467 111.768 34.5067 111.874 34C112.008 33.4933 112.074 32.88 112.074 32.16C112.074 31.7067 112.061 31.2 112.034 30.64C112.034 30.08 112.034 29.3867 112.034 28.56C112.034 28.0267 112.034 27.4267 112.034 26.76C112.061 26.0933 112.088 25.3467 112.114 24.52C110.701 25.2667 109.541 25.64 108.634 25.64C107.914 25.64 107.248 25.4133 106.634 24.96C106.421 24.8 106.261 24.6 106.154 24.36C106.074 24.0933 106.034 23.8133 106.034 23.52C106.034 22.88 106.194 22.1733 106.514 21.4C106.834 20.6 107.208 19.8667 107.634 19.2C108.061 18.5067 108.434 18 108.754 17.68C108.941 17.36 109.154 17.2 109.394 17.2C109.608 17.2 109.781 17.3333 109.914 17.6C110.048 17.84 110.048 18.0133 109.914 18.12C109.568 18.4133 109.274 18.7733 109.034 19.2C108.794 19.6267 108.568 20.0667 108.354 20.52C108.168 20.9733 108.074 21.56 108.074 22.28C108.074 22.5467 108.088 22.8133 108.114 23.08C108.168 23.3467 108.248 23.5467 108.354 23.68C108.488 23.84 108.728 23.92 109.074 23.92C109.394 23.92 109.754 23.8533 110.154 23.72C110.554 23.56 110.888 23.36 111.154 23.12C111.794 22.5333 112.248 21.92 112.514 21.28C112.808 20.6133 113.034 19.9733 113.194 19.36C113.274 19.04 113.368 18.6667 113.474 18.24C113.581 17.7867 113.634 17.3333 113.634 16.88C113.634 16.72 113.808 16.5067 114.154 16.24C114.501 15.9467 114.861 15.8 115.234 15.8C115.528 15.8 115.768 15.92 115.954 16.16Z" fill="black"/>
<path d="M138.362 8.28C138.122 8.94667 137.776 9.52 137.322 10C136.869 10.4533 136.189 10.68 135.282 10.68C134.856 10.68 134.469 10.6 134.122 10.44C133.776 10.2533 133.496 9.94667 133.282 9.52C133.122 9.22667 133.042 8.90667 133.042 8.56C133.042 8.13333 133.149 7.74667 133.362 7.4C133.602 7.05333 133.936 6.86667 134.362 6.84C134.416 6.84 134.469 6.84 134.522 6.84C134.602 6.81333 134.656 6.8 134.682 6.8C135.109 6.8 135.442 6.96 135.682 7.28C135.762 7.38667 135.802 7.49333 135.802 7.6C135.802 7.78667 135.696 7.98667 135.482 8.2C135.296 8.38667 135.109 8.58667 134.922 8.8C134.762 9.01333 134.722 9.25333 134.802 9.52C134.962 10 135.256 10.24 135.682 10.24C136.082 10.24 136.509 10.0267 136.962 9.6C137.442 9.14667 137.816 8.52 138.082 7.72C138.162 7.56 138.202 7.37333 138.202 7.16C138.202 6.76 138.042 6.34667 137.722 5.92C137.402 5.49333 136.989 5.18667 136.482 5C136.269 4.92 136.029 4.85333 135.762 4.8C135.522 4.74667 135.282 4.72 135.042 4.72C134.082 4.72 133.136 5 132.202 5.56C131.269 6.12 130.629 6.89333 130.282 7.88C130.149 8.22667 130.056 8.56 130.002 8.88C129.949 9.2 129.922 9.49333 129.922 9.76C129.922 10.5333 130.122 11.1867 130.522 11.72C130.922 12.2533 131.429 12.7333 132.042 13.16C132.682 13.5867 133.349 14.0267 134.042 14.48C134.736 14.9067 135.389 15.4 136.002 15.96C136.642 16.52 137.162 17.2 137.562 18C137.962 18.8 138.162 19.7867 138.162 20.96C138.162 21.6267 138.082 22.3733 137.922 23.2C137.762 24.0267 137.496 24.9467 137.122 25.96C136.669 27.1867 135.989 28.2933 135.082 29.28C134.202 30.2933 133.176 31.0933 132.002 31.68C130.856 32.2667 129.642 32.56 128.362 32.56C127.482 32.56 126.602 32.4 125.722 32.08C124.416 31.6 123.536 30.9867 123.082 30.24C122.602 29.52 122.362 28.7867 122.362 28.04C122.362 27.5333 122.429 27.0533 122.562 26.6C122.696 26.1467 122.816 25.7467 122.922 25.4C123.109 24.8667 123.482 24.32 124.042 23.76C124.629 23.2 125.282 22.7333 126.002 22.36C126.722 21.96 127.389 21.76 128.002 21.76C128.269 21.76 128.522 21.8 128.762 21.88C129.269 22.0133 129.522 22.5467 129.522 23.48C129.522 23.7467 129.496 24.0133 129.442 24.28C129.389 24.5467 129.309 24.8267 129.202 25.12C129.016 25.6267 128.736 26.04 128.362 26.36C128.016 26.68 127.549 26.84 126.962 26.84C126.669 26.84 126.389 26.8267 126.122 26.8C125.882 26.7467 125.696 26.6133 125.562 26.4C125.536 26.3467 125.509 26.2933 125.482 26.24C125.482 26.1867 125.482 26.1333 125.482 26.08C125.482 25.6533 125.696 25.2933 126.122 25C126.336 24.84 126.536 24.84 126.722 25C126.909 25.16 127.096 25.3333 127.282 25.52C127.496 25.68 127.722 25.7333 127.962 25.68C128.389 25.5733 128.669 25.3333 128.802 24.96C128.936 24.5867 129.002 24.1733 129.002 23.72C129.002 23.5867 129.002 23.4533 129.002 23.32C129.002 23.1867 128.989 23.0533 128.962 22.92C128.936 22.4667 128.709 22.24 128.282 22.24C127.962 22.24 127.562 22.3733 127.082 22.64C126.629 22.9067 126.162 23.24 125.682 23.64C125.229 24.0133 124.829 24.4 124.482 24.8C124.136 25.1733 123.922 25.4667 123.842 25.68C123.602 26.3467 123.482 26.9733 123.482 27.56C123.482 28.9733 124.229 29.96 125.722 30.52C125.882 30.5733 126.069 30.6 126.282 30.6C126.816 30.6 127.536 30.48 128.442 30.24C129.376 30 130.362 29.6133 131.402 29.08C132.442 28.5467 133.416 27.8267 134.322 26.92C135.229 26.0133 135.922 24.8933 136.402 23.56C136.642 22.92 136.816 22.3333 136.922 21.8C137.029 21.2667 137.082 20.7733 137.082 20.32C137.082 19.3067 136.856 18.4667 136.402 17.8C135.976 17.1067 135.402 16.5333 134.682 16.08C133.989 15.6267 133.256 15.2133 132.482 14.84C131.709 14.4667 130.962 14.08 130.242 13.68C129.549 13.2533 128.976 12.76 128.522 12.2C128.096 11.6133 127.882 10.88 127.882 10C127.882 9.68 127.909 9.33333 127.962 8.96C128.042 8.56 128.162 8.14667 128.322 7.72C128.856 6.22667 129.629 5.16 130.642 4.52C131.682 3.88 132.776 3.56 133.922 3.56C134.402 3.56 134.882 3.61333 135.362 3.72C135.842 3.8 136.309 3.92 136.762 4.08C137.536 4.34667 138.056 4.68 138.322 5.08C138.616 5.48 138.762 5.92 138.762 6.4C138.762 6.69333 138.722 7 138.642 7.32C138.589 7.61333 138.496 7.93333 138.362 8.28Z" fill="black"/>
<path d="M153.371 24.88C153.451 24.8 153.558 24.76 153.691 24.76C153.878 24.76 153.971 24.8533 153.971 25.04C153.971 25.1467 153.905 25.3067 153.771 25.52C153.665 25.7333 153.425 25.9867 153.051 26.28C152.678 26.6 152.291 26.8933 151.891 27.16C151.518 27.4267 150.998 27.56 150.331 27.56C149.611 27.56 149.038 27.4267 148.611 27.16C148.211 26.8933 147.918 26.6 147.731 26.28C147.571 25.9333 147.465 25.6667 147.411 25.48C147.091 25.72 146.758 26.04 146.411 26.44C146.091 26.8133 145.625 27.16 145.011 27.48C144.398 27.7733 143.518 27.92 142.371 27.92C141.731 27.92 141.145 27.7733 140.611 27.48C140.105 27.16 139.851 26.48 139.851 25.44C139.851 25.1467 139.865 24.84 139.891 24.52C139.945 24.1733 140.025 23.8 140.131 23.4C140.451 22.1467 140.825 21.16 141.251 20.44C141.678 19.72 142.318 19.1867 143.171 18.84C143.705 18.6267 144.358 18.4267 145.131 18.24C145.905 18.0533 146.585 17.8933 147.171 17.76C147.358 17.7067 147.518 17.5333 147.651 17.24C147.811 16.92 147.985 16.6267 148.171 16.36C148.278 16.2267 148.398 16.12 148.531 16.04C148.665 15.9333 148.811 15.88 148.971 15.88C149.105 15.88 149.278 15.9467 149.491 16.08C149.678 16.2133 149.798 16.4667 149.851 16.84C149.931 17.2133 149.971 17.56 149.971 17.88C149.945 18.04 149.878 18.24 149.771 18.48C149.691 18.6933 149.625 18.9333 149.571 19.2C149.518 19.5467 149.385 20.04 149.171 20.68C148.958 21.32 148.851 21.8533 148.851 22.28C148.851 22.6533 148.825 23.12 148.771 23.68C148.718 24.2133 148.718 24.5867 148.771 24.8C149.065 25.44 149.478 25.8667 150.011 26.08C150.545 26.2667 151.011 26.32 151.411 26.24C151.705 26.1867 152.038 26.0133 152.411 25.72C152.785 25.4267 153.105 25.1467 153.371 24.88ZM146.891 20.32C146.838 20.1067 146.705 19.88 146.491 19.64C146.305 19.4 146.065 19.28 145.771 19.28C145.718 19.28 145.611 19.3067 145.451 19.36C144.998 19.52 144.518 19.8267 144.011 20.28C143.505 20.7067 143.065 21.2667 142.691 21.96C142.318 22.6533 142.105 23.4667 142.051 24.4C142.051 24.6667 142.131 25.0133 142.291 25.44C142.478 25.8667 142.718 26.2267 143.011 26.52C143.305 26.8133 143.598 26.8933 143.891 26.76C144.531 26.4933 145.065 26.12 145.491 25.64C145.945 25.1333 146.318 24.52 146.611 23.8C146.745 23.4533 146.838 23.0933 146.891 22.72C146.971 22.32 147.011 21.9467 147.011 21.6C147.011 21.28 146.998 21.0133 146.971 20.8C146.945 20.56 146.918 20.4 146.891 20.32Z" fill="black"/>
<path d="M166.25 25.92C166.17 26.08 165.916 26.3733 165.49 26.8C165.09 27.2 164.583 27.44 163.97 27.52C163.543 27.5733 163.236 27.3333 163.05 26.8C162.89 26.24 162.81 25.6 162.81 24.88C162.81 24.5867 162.823 24.2933 162.85 24C162.876 23.68 162.916 23.3867 162.97 23.12C163.023 22.8267 163.076 22.5467 163.13 22.28C163.183 22.0133 163.21 21.7867 163.21 21.6C163.21 21.1467 163.036 20.9733 162.69 21.08C162.45 21.3733 162.223 21.8133 162.01 22.4C161.823 22.9867 161.663 23.4267 161.53 23.72C161.236 24.3867 160.996 24.9467 160.81 25.4C160.623 25.8533 160.383 26.08 160.09 26.08C159.85 26.08 159.73 25.8533 159.73 25.4C159.73 25.0267 159.783 24.64 159.89 24.24C159.996 23.84 160.05 23.64 160.05 23.64C160.183 23.2667 160.303 22.8533 160.41 22.4C160.543 21.92 160.65 21.5067 160.73 21.16C160.81 20.7867 160.85 20.6 160.85 20.6C160.85 20.5467 160.85 20.4667 160.85 20.36C160.876 20.2533 160.89 20.1467 160.89 20.04C160.89 19.8267 160.85 19.6267 160.77 19.44C160.716 19.2533 160.556 19.1467 160.29 19.12C160.13 19.0933 159.863 19.2533 159.49 19.6C159.143 19.92 158.783 20.32 158.41 20.8C158.063 21.2533 157.783 21.68 157.57 22.08C157.223 22.8 156.983 23.5333 156.85 24.28C156.716 25.0267 156.596 25.72 156.49 26.36C156.41 26.9733 156.263 27.48 156.05 27.88C155.97 28.04 155.81 28.12 155.57 28.12C155.383 28.12 155.183 28.0667 154.97 27.96C154.783 27.8267 154.69 27.68 154.69 27.52C154.743 27.04 154.85 26.4667 155.01 25.8C155.196 25.1333 155.396 24.3333 155.61 23.4C155.69 23.08 155.756 22.7067 155.81 22.28C155.863 21.8533 155.903 21.5333 155.93 21.32V21.24C155.93 20.8667 155.756 20.68 155.41 20.68C155.276 20.68 155.13 20.72 154.97 20.8C154.463 21.2267 154.036 21.6933 153.69 22.2C153.343 22.7067 153.063 23.1467 152.85 23.52C152.61 23.8933 152.396 24.12 152.21 24.2C152.13 24.2267 152.09 24.1467 152.09 23.96C152.09 23.8533 152.103 23.7333 152.13 23.6C152.156 23.4667 152.223 23.3333 152.33 23.2C152.57 22.96 152.823 22.5733 153.09 22.04C153.356 21.5067 153.636 20.96 153.93 20.4C154.25 19.8133 154.596 19.32 154.97 18.92C155.37 18.4933 155.796 18.28 156.25 18.28C156.516 18.28 156.783 18.4667 157.05 18.84C157.343 19.2133 157.516 19.6933 157.57 20.28C158.023 19.9067 158.45 19.5067 158.85 19.08C159.25 18.6267 159.716 18.2267 160.25 17.88C160.463 17.7733 160.69 17.72 160.93 17.72C161.33 17.72 161.596 17.84 161.73 18.08C161.916 18.32 162.023 18.6667 162.05 19.12C162.076 19.5733 162.116 19.8133 162.17 19.84C162.223 19.8667 162.343 19.7867 162.53 19.6C162.743 19.3867 163.036 19.3067 163.41 19.36C163.543 19.36 163.73 19.44 163.97 19.6C164.21 19.76 164.33 19.96 164.33 20.2C164.33 20.5467 164.303 20.9733 164.25 21.48C164.196 21.96 164.13 22.4667 164.05 23C164.023 23.1067 164.01 23.2533 164.01 23.44C164.01 23.6 164.01 23.7867 164.01 24C164.01 24.3467 164.036 24.72 164.09 25.12C164.17 25.4933 164.343 25.7733 164.61 25.96C164.69 26.04 164.796 26.08 164.93 26.08C165.223 26.08 165.61 25.8267 166.09 25.32C166.17 25.24 166.236 25.2 166.29 25.2C166.37 25.2 166.41 25.28 166.41 25.44C166.41 25.6533 166.356 25.8133 166.25 25.92Z" fill="black"/>
<path d="M179.096 24.92C178.349 25.88 177.669 26.5867 177.056 27.04C176.469 27.4667 175.869 27.7333 175.256 27.84C174.669 27.9467 174.002 28 173.256 28C172.589 28 171.962 27.9467 171.376 27.84C170.789 27.7333 170.362 27.5867 170.096 27.4C170.016 27.9333 169.936 28.5733 169.856 29.32C169.802 30.0933 169.629 31.2267 169.336 32.72C168.909 34.8 168.322 36.52 167.576 37.88C166.856 39.24 165.936 40 164.816 40.16C164.416 40.2133 164.136 40.0267 163.976 39.6C163.816 39.2 163.736 38.7067 163.736 38.12C163.736 37.5867 163.789 37.0267 163.896 36.44C164.002 35.8533 164.122 35.32 164.256 34.84C164.576 33.7467 164.842 32.92 165.056 32.36C165.242 31.8267 165.416 31.3867 165.576 31.04C165.709 30.72 165.856 30.3467 166.016 29.92C166.176 29.52 166.376 28.9333 166.616 28.16C166.696 27.8933 166.789 27.5867 166.896 27.24C167.029 26.8667 167.176 26.4667 167.336 26.04C167.309 25.8267 167.256 25.68 167.176 25.6C167.096 25.52 167.056 25.4 167.056 25.24C167.056 24.76 167.296 24.3867 167.776 24.12C168.282 23.8533 168.682 23.76 168.976 23.84C169.029 23.3067 169.069 22.6533 169.096 21.88C169.122 21.1067 169.176 20.3333 169.256 19.56C169.362 18.76 169.509 18.0533 169.696 17.44C169.882 16.8267 170.136 16.4 170.456 16.16C170.669 16.1067 170.842 16.08 170.976 16.08C171.376 16.08 171.629 16.2 171.736 16.44C171.762 16.4933 171.776 16.6 171.776 16.76V17.12C171.776 17.3067 171.816 17.4267 171.896 17.48C172.242 17.64 172.682 17.72 173.216 17.72C173.749 17.72 174.189 17.8267 174.536 18.04C174.909 18.2533 175.242 18.6 175.536 19.08C175.829 19.5333 175.976 20.16 175.976 20.96C175.976 21.2267 175.909 21.6933 175.776 22.36C175.669 23.0267 175.416 23.7333 175.016 24.48C174.642 25.2267 174.056 25.84 173.256 26.32C173.762 26.5333 174.256 26.64 174.736 26.64C175.402 26.64 176.082 26.44 176.776 26.04C177.469 25.6133 178.189 24.9067 178.936 23.92C179.069 23.76 179.176 23.68 179.256 23.68C179.416 23.68 179.496 23.7867 179.496 24C179.496 24.24 179.362 24.5467 179.096 24.92ZM174.736 20.44C174.736 19.96 174.496 19.52 174.016 19.12C173.562 18.6933 173.096 18.48 172.616 18.48C172.029 18.48 171.576 18.76 171.256 19.32C170.936 19.8533 170.696 20.5733 170.536 21.48C170.376 22.36 170.216 23.32 170.056 24.36C170.082 24.3867 170.096 24.4 170.096 24.4C170.122 24.4 170.136 24.4 170.136 24.4C170.189 24.4 170.229 24.3867 170.256 24.36C170.309 24.3333 170.362 24.32 170.416 24.32C170.469 24.32 170.549 24.3333 170.656 24.36C170.762 24.3867 170.869 24.4667 170.976 24.6C171.269 24.84 171.536 25.04 171.776 25.2C172.042 25.36 172.229 25.44 172.336 25.44C172.602 25.44 172.869 25.2933 173.136 25C173.429 24.7067 173.696 24.3467 173.936 23.92C174.176 23.4933 174.349 23.1067 174.456 22.76C174.616 22.28 174.696 21.8133 174.696 21.36C174.722 20.88 174.736 20.5733 174.736 20.44ZM172.056 26.12C172.056 26.12 171.896 26.0667 171.576 25.96C171.256 25.8533 170.949 25.7067 170.656 25.52C170.602 25.4933 170.522 25.48 170.416 25.48C170.282 25.48 170.216 25.5867 170.216 25.8C170.216 25.9067 170.242 26.0267 170.296 26.16C170.349 26.2667 170.429 26.3467 170.536 26.4C170.856 26.48 171.189 26.4533 171.536 26.32C171.882 26.1867 172.056 26.12 172.056 26.12ZM168.736 26.88C168.682 26.8267 168.589 26.7867 168.456 26.76C168.349 26.7067 168.242 26.6533 168.136 26.6C167.762 27.9067 167.389 29.08 167.016 30.12C166.669 31.16 166.336 32.2 166.016 33.24C165.722 34.28 165.456 35.48 165.216 36.84C165.189 37.0267 165.176 37.1867 165.176 37.32C165.149 37.48 165.136 37.6133 165.136 37.72C165.136 38.0667 165.202 38.24 165.336 38.24C165.469 38.24 165.629 38.12 165.816 37.88C166.002 37.6667 166.162 37.44 166.296 37.2C166.989 36.1333 167.429 35.2533 167.616 34.56C167.829 33.8667 167.949 33.2133 167.976 32.6C168.002 32.0133 168.096 31.3333 168.256 30.56C168.362 30.0267 168.456 29.48 168.536 28.92C168.642 28.3867 168.709 27.92 168.736 27.52C168.789 27.12 168.789 26.9067 168.736 26.88Z" fill="black"/>
<path d="M189.215 24.4C189.002 24.88 188.535 25.4533 187.815 26.12C187.122 26.7867 186.295 27.3733 185.335 27.88C184.402 28.36 183.455 28.6 182.495 28.6C181.109 28.6 180.175 28.2 179.695 27.4C179.215 26.5733 178.975 25.4667 178.975 24.08C178.975 23.1467 179.055 22 179.215 20.64C179.375 19.28 179.615 17.8133 179.935 16.24C180.255 14.6667 180.655 13.08 181.135 11.48C181.615 9.96 182.135 8.48 182.695 7.04C183.255 5.6 184.095 4.34667 185.215 3.28C185.402 2.98667 185.642 2.84 185.935 2.84C186.175 2.84 186.389 2.94667 186.575 3.16C186.762 3.34667 186.842 3.57333 186.815 3.84C186.815 3.84 186.802 4.17333 186.775 4.84C186.775 5.50667 186.735 6.32 186.655 7.28C186.575 8.21333 186.455 9.10667 186.295 9.96C186.055 11.4 185.615 12.92 184.975 14.52C184.362 16.12 183.709 17.5733 183.015 18.88C182.455 19.9733 182.002 20.76 181.655 21.24C181.335 21.72 181.082 22.0667 180.895 22.28C180.735 22.4933 180.615 22.7733 180.535 23.12C180.509 23.3067 180.482 23.52 180.455 23.76C180.455 23.9733 180.455 24.2 180.455 24.44C180.455 24.92 180.482 25.3867 180.535 25.84C180.615 26.2667 180.709 26.5467 180.815 26.68C181.109 26.9733 181.429 27.1867 181.775 27.32C182.122 27.4533 182.469 27.52 182.815 27.52C183.109 27.52 183.375 27.48 183.615 27.4C184.522 27.1333 185.442 26.6933 186.375 26.08C187.335 25.4667 188.015 24.8667 188.415 24.28C188.602 24.0133 188.749 23.84 188.855 23.76C188.989 23.6533 189.095 23.6 189.175 23.6C189.309 23.6 189.375 23.6933 189.375 23.88C189.375 23.9333 189.362 24.0133 189.335 24.12C189.309 24.2 189.269 24.2933 189.215 24.4ZM185.575 5.52C185.309 5.46667 184.882 6.05333 184.295 7.28C183.735 8.50667 183.149 10.1733 182.535 12.28C182.349 12.92 182.135 13.7333 181.895 14.72C181.682 15.7067 181.469 16.7333 181.255 17.8C181.042 18.84 180.882 19.7867 180.775 20.64C181.629 18.9067 182.402 17.3467 183.095 15.96C183.789 14.5733 184.322 13.28 184.695 12.08C185.042 11.12 185.295 10.0933 185.455 9C185.642 7.90667 185.735 7.04 185.735 6.4C185.735 5.89333 185.682 5.6 185.575 5.52Z" fill="black"/>
<path d="M197.3 23.12C196.953 23.7067 196.513 24.3467 195.98 25.04C195.447 25.7067 194.887 26.28 194.3 26.76C193.74 27.24 193.207 27.48 192.7 27.48C191.873 27.48 191.22 27.44 190.74 27.36C190.287 27.2533 189.913 27.1067 189.62 26.92C189.113 26.5733 188.7 26.12 188.38 25.56C188.06 25 187.873 24.4267 187.82 23.84C187.793 23.68 187.78 23.52 187.78 23.36C187.78 23.2 187.78 23.0533 187.78 22.92C187.78 21.3467 188.087 19.96 188.7 18.76C189.313 17.56 190.18 16.84 191.3 16.6C191.647 16.5467 191.913 16.6933 192.1 17.04C192.287 17.36 192.38 17.8 192.38 18.36C192.38 19.2133 192.153 20.1333 191.7 21.12C191.513 21.52 191.313 21.9067 191.1 22.28C190.913 22.6267 190.753 22.9067 190.62 23.12C190.273 23.6267 190.007 23.9733 189.82 24.16C189.66 24.32 189.58 24.48 189.58 24.64C189.58 25.0667 189.847 25.48 190.38 25.88C190.913 26.28 191.74 26.48 192.86 26.48C193.287 26.48 193.727 26.2933 194.18 25.92C194.633 25.5467 195.073 25.08 195.5 24.52C195.953 23.96 196.353 23.4 196.7 22.84C196.86 22.5733 197.007 22.44 197.14 22.44C197.3 22.44 197.38 22.56 197.38 22.8C197.38 22.9067 197.353 23.0133 197.3 23.12ZM191.3 18.08C191.193 17.92 190.967 17.96 190.62 18.2C190.3 18.4133 190.007 18.92 189.74 19.72C189.553 20.3067 189.46 20.9867 189.46 21.76C189.46 21.9733 189.46 22.1867 189.46 22.4C189.487 22.6133 189.513 22.8267 189.54 23.04C189.993 22.2667 190.313 21.6933 190.5 21.32C190.713 20.92 190.873 20.5067 190.98 20.08C191.033 19.8667 191.113 19.6 191.22 19.28C191.353 18.96 191.42 18.68 191.42 18.44C191.42 18.28 191.38 18.16 191.3 18.08Z" fill="black"/>
<path d="M216.253 8.28C216.013 8.94667 215.666 9.52 215.213 10C214.759 10.4533 214.079 10.68 213.173 10.68C212.746 10.68 212.359 10.6 212.013 10.44C211.666 10.2533 211.386 9.94667 211.173 9.52C211.013 9.22667 210.933 8.90667 210.933 8.56C210.933 8.13333 211.039 7.74667 211.253 7.4C211.493 7.05333 211.826 6.86667 212.253 6.84C212.306 6.84 212.359 6.84 212.413 6.84C212.493 6.81333 212.546 6.8 212.573 6.8C212.999 6.8 213.333 6.96 213.573 7.28C213.653 7.38667 213.693 7.49333 213.693 7.6C213.693 7.78667 213.586 7.98667 213.373 8.2C213.186 8.38667 212.999 8.58667 212.813 8.8C212.653 9.01333 212.613 9.25333 212.693 9.52C212.853 10 213.146 10.24 213.573 10.24C213.973 10.24 214.399 10.0267 214.853 9.6C215.333 9.14667 215.706 8.52 215.973 7.72C216.053 7.56 216.093 7.37333 216.093 7.16C216.093 6.76 215.933 6.34667 215.613 5.92C215.293 5.49333 214.879 5.18667 214.373 5C214.159 4.92 213.919 4.85333 213.653 4.8C213.413 4.74667 213.173 4.72 212.933 4.72C211.973 4.72 211.026 5 210.093 5.56C209.159 6.12 208.519 6.89333 208.173 7.88C208.039 8.22667 207.946 8.56 207.893 8.88C207.839 9.2 207.813 9.49333 207.813 9.76C207.813 10.5333 208.013 11.1867 208.413 11.72C208.813 12.2533 209.319 12.7333 209.933 13.16C210.573 13.5867 211.239 14.0267 211.933 14.48C212.626 14.9067 213.279 15.4 213.893 15.96C214.533 16.52 215.053 17.2 215.453 18C215.853 18.8 216.053 19.7867 216.053 20.96C216.053 21.6267 215.973 22.3733 215.813 23.2C215.653 24.0267 215.386 24.9467 215.013 25.96C214.559 27.1867 213.879 28.2933 212.973 29.28C212.093 30.2933 211.066 31.0933 209.893 31.68C208.746 32.2667 207.533 32.56 206.253 32.56C205.373 32.56 204.493 32.4 203.613 32.08C202.306 31.6 201.426 30.9867 200.973 30.24C200.493 29.52 200.253 28.7867 200.253 28.04C200.253 27.5333 200.319 27.0533 200.453 26.6C200.586 26.1467 200.706 25.7467 200.813 25.4C200.999 24.8667 201.373 24.32 201.933 23.76C202.519 23.2 203.173 22.7333 203.893 22.36C204.613 21.96 205.279 21.76 205.893 21.76C206.159 21.76 206.413 21.8 206.653 21.88C207.159 22.0133 207.413 22.5467 207.413 23.48C207.413 23.7467 207.386 24.0133 207.333 24.28C207.279 24.5467 207.199 24.8267 207.093 25.12C206.906 25.6267 206.626 26.04 206.253 26.36C205.906 26.68 205.439 26.84 204.853 26.84C204.559 26.84 204.279 26.8267 204.013 26.8C203.773 26.7467 203.586 26.6133 203.453 26.4C203.426 26.3467 203.399 26.2933 203.373 26.24C203.373 26.1867 203.373 26.1333 203.373 26.08C203.373 25.6533 203.586 25.2933 204.013 25C204.226 24.84 204.426 24.84 204.613 25C204.799 25.16 204.986 25.3333 205.173 25.52C205.386 25.68 205.613 25.7333 205.853 25.68C206.279 25.5733 206.559 25.3333 206.693 24.96C206.826 24.5867 206.893 24.1733 206.893 23.72C206.893 23.5867 206.893 23.4533 206.893 23.32C206.893 23.1867 206.879 23.0533 206.853 22.92C206.826 22.4667 206.599 22.24 206.173 22.24C205.853 22.24 205.453 22.3733 204.973 22.64C204.519 22.9067 204.053 23.24 203.573 23.64C203.119 24.0133 202.719 24.4 202.373 24.8C202.026 25.1733 201.813 25.4667 201.733 25.68C201.493 26.3467 201.373 26.9733 201.373 27.56C201.373 28.9733 202.119 29.96 203.613 30.52C203.773 30.5733 203.959 30.6 204.173 30.6C204.706 30.6 205.426 30.48 206.333 30.24C207.266 30 208.253 29.6133 209.293 29.08C210.333 28.5467 211.306 27.8267 212.213 26.92C213.119 26.0133 213.813 24.8933 214.293 23.56C214.533 22.92 214.706 22.3333 214.813 21.8C214.919 21.2667 214.973 20.7733 214.973 20.32C214.973 19.3067 214.746 18.4667 214.293 17.8C213.866 17.1067 213.293 16.5333 212.573 16.08C211.879 15.6267 211.146 15.2133 210.373 14.84C209.599 14.4667 208.853 14.08 208.133 13.68C207.439 13.2533 206.866 12.76 206.413 12.2C205.986 11.6133 205.773 10.88 205.773 10C205.773 9.68 205.799 9.33333 205.853 8.96C205.933 8.56 206.053 8.14667 206.213 7.72C206.746 6.22667 207.519 5.16 208.533 4.52C209.573 3.88 210.666 3.56 211.813 3.56C212.293 3.56 212.773 3.61333 213.253 3.72C213.733 3.8 214.199 3.92 214.653 4.08C215.426 4.34667 215.946 4.68 216.213 5.08C216.506 5.48 216.653 5.92 216.653 6.4C216.653 6.69333 216.613 7 216.533 7.32C216.479 7.61333 216.386 7.93333 216.253 8.28Z" fill="black"/>
<path d="M231.262 24.88C231.342 24.8 231.449 24.76 231.582 24.76C231.769 24.76 231.862 24.8533 231.862 25.04C231.862 25.1467 231.795 25.3067 231.662 25.52C231.555 25.7333 231.315 25.9867 230.942 26.28C230.569 26.6 230.182 26.8933 229.782 27.16C229.409 27.4267 228.889 27.56 228.222 27.56C227.502 27.56 226.929 27.4267 226.502 27.16C226.102 26.8933 225.809 26.6 225.622 26.28C225.462 25.9333 225.355 25.6667 225.302 25.48C224.982 25.72 224.649 26.04 224.302 26.44C223.982 26.8133 223.515 27.16 222.902 27.48C222.289 27.7733 221.409 27.92 220.262 27.92C219.622 27.92 219.035 27.7733 218.502 27.48C217.995 27.16 217.742 26.48 217.742 25.44C217.742 25.1467 217.755 24.84 217.782 24.52C217.835 24.1733 217.915 23.8 218.022 23.4C218.342 22.1467 218.715 21.16 219.142 20.44C219.569 19.72 220.209 19.1867 221.062 18.84C221.595 18.6267 222.249 18.4267 223.022 18.24C223.795 18.0533 224.475 17.8933 225.062 17.76C225.249 17.7067 225.409 17.5333 225.542 17.24C225.702 16.92 225.875 16.6267 226.062 16.36C226.169 16.2267 226.289 16.12 226.422 16.04C226.555 15.9333 226.702 15.88 226.862 15.88C226.995 15.88 227.169 15.9467 227.382 16.08C227.569 16.2133 227.689 16.4667 227.742 16.84C227.822 17.2133 227.862 17.56 227.862 17.88C227.835 18.04 227.769 18.24 227.662 18.48C227.582 18.6933 227.515 18.9333 227.462 19.2C227.409 19.5467 227.275 20.04 227.062 20.68C226.849 21.32 226.742 21.8533 226.742 22.28C226.742 22.6533 226.715 23.12 226.662 23.68C226.609 24.2133 226.609 24.5867 226.662 24.8C226.955 25.44 227.369 25.8667 227.902 26.08C228.435 26.2667 228.902 26.32 229.302 26.24C229.595 26.1867 229.929 26.0133 230.302 25.72C230.675 25.4267 230.995 25.1467 231.262 24.88ZM224.782 20.32C224.729 20.1067 224.595 19.88 224.382 19.64C224.195 19.4 223.955 19.28 223.662 19.28C223.609 19.28 223.502 19.3067 223.342 19.36C222.889 19.52 222.409 19.8267 221.902 20.28C221.395 20.7067 220.955 21.2667 220.582 21.96C220.209 22.6533 219.995 23.4667 219.942 24.4C219.942 24.6667 220.022 25.0133 220.182 25.44C220.369 25.8667 220.609 26.2267 220.902 26.52C221.195 26.8133 221.489 26.8933 221.782 26.76C222.422 26.4933 222.955 26.12 223.382 25.64C223.835 25.1333 224.209 24.52 224.502 23.8C224.635 23.4533 224.729 23.0933 224.782 22.72C224.862 22.32 224.902 21.9467 224.902 21.6C224.902 21.28 224.889 21.0133 224.862 20.8C224.835 20.56 224.809 20.4 224.782 20.32Z" fill="black"/>
<path d="M242.34 24.4C242.127 24.88 241.66 25.4533 240.94 26.12C240.247 26.7867 239.42 27.3733 238.46 27.88C237.527 28.36 236.58 28.6 235.62 28.6C234.234 28.6 233.3 28.2 232.82 27.4C232.34 26.5733 232.1 25.4667 232.1 24.08C232.1 23.1467 232.18 22 232.34 20.64C232.5 19.28 232.74 17.8133 233.06 16.24C233.38 14.6667 233.78 13.08 234.26 11.48C234.74 9.96 235.26 8.48 235.82 7.04C236.38 5.6 237.22 4.34667 238.34 3.28C238.527 2.98667 238.767 2.84 239.06 2.84C239.3 2.84 239.514 2.94667 239.7 3.16C239.887 3.34667 239.967 3.57333 239.94 3.84C239.94 3.84 239.927 4.17333 239.9 4.84C239.9 5.50667 239.86 6.32 239.78 7.28C239.7 8.21333 239.58 9.10667 239.42 9.96C239.18 11.4 238.74 12.92 238.1 14.52C237.487 16.12 236.834 17.5733 236.14 18.88C235.58 19.9733 235.127 20.76 234.78 21.24C234.46 21.72 234.207 22.0667 234.02 22.28C233.86 22.4933 233.74 22.7733 233.66 23.12C233.634 23.3067 233.607 23.52 233.58 23.76C233.58 23.9733 233.58 24.2 233.58 24.44C233.58 24.92 233.607 25.3867 233.66 25.84C233.74 26.2667 233.834 26.5467 233.94 26.68C234.234 26.9733 234.554 27.1867 234.9 27.32C235.247 27.4533 235.594 27.52 235.94 27.52C236.234 27.52 236.5 27.48 236.74 27.4C237.647 27.1333 238.567 26.6933 239.5 26.08C240.46 25.4667 241.14 24.8667 241.54 24.28C241.727 24.0133 241.874 23.84 241.98 23.76C242.114 23.6533 242.22 23.6 242.3 23.6C242.434 23.6 242.5 23.6933 242.5 23.88C242.5 23.9333 242.487 24.0133 242.46 24.12C242.434 24.2 242.394 24.2933 242.34 24.4ZM238.7 5.52C238.434 5.46667 238.007 6.05333 237.42 7.28C236.86 8.50667 236.274 10.1733 235.66 12.28C235.474 12.92 235.26 13.7333 235.02 14.72C234.807 15.7067 234.594 16.7333 234.38 17.8C234.167 18.84 234.007 19.7867 233.9 20.64C234.754 18.9067 235.527 17.3467 236.22 15.96C236.914 14.5733 237.447 13.28 237.82 12.08C238.167 11.12 238.42 10.0933 238.58 9C238.767 7.90667 238.86 7.04 238.86 6.4C238.86 5.89333 238.807 5.6 238.7 5.52Z" fill="black"/>
<path d="M249.945 20.48C249.945 21.04 249.825 21.7733 249.585 22.68C249.345 23.5867 249.025 24.44 248.625 25.24C248.252 26.0667 247.825 26.68 247.345 27.08C246.892 27.4533 246.452 27.72 246.025 27.88C245.598 28.0133 245.252 28.1467 244.985 28.28C244.878 28.3067 244.758 28.3333 244.625 28.36C244.518 28.4133 244.398 28.44 244.265 28.44C243.732 28.44 243.318 28.2933 243.025 28C242.918 27.8933 242.745 27.7867 242.505 27.68C242.292 27.5733 242.092 27.3867 241.905 27.12C241.718 26.8533 241.625 26.4133 241.625 25.8C241.625 25.16 241.705 24.5467 241.865 23.96C241.385 23.4 241.145 22.7867 241.145 22.12C241.145 21.72 241.238 21.3333 241.425 20.96C241.932 20 242.572 19.2533 243.345 18.72C244.118 18.1867 244.852 17.8133 245.545 17.6C246.265 17.3867 246.758 17.28 247.025 17.28C248.012 17.28 248.745 17.6 249.225 18.24C249.705 18.88 249.945 19.6267 249.945 20.48ZM248.305 20.68C248.305 20.0667 248.092 19.56 247.665 19.16C247.265 18.76 246.758 18.56 246.145 18.56C245.638 18.56 245.118 18.72 244.585 19.04C244.078 19.3333 243.638 19.7067 243.265 20.16C242.892 20.6133 242.652 21.0533 242.545 21.48C242.518 21.64 242.492 21.7867 242.465 21.92C242.465 22.0533 242.465 22.1867 242.465 22.32C242.758 21.68 243.065 21.1467 243.385 20.72C243.732 20.2933 243.985 20.0267 244.145 19.92C244.278 19.8133 244.452 19.76 244.665 19.76C244.958 19.76 245.105 19.84 245.105 20C245.105 20.1067 244.958 20.3067 244.665 20.6C244.398 20.8667 244.092 21.2267 243.745 21.68C243.398 22.1067 243.105 22.64 242.865 23.28C243.078 23.5467 243.358 23.7467 243.705 23.88C244.078 23.9867 244.438 24.04 244.785 24.04C245.158 24.04 245.505 23.9733 245.825 23.84C246.172 23.68 246.398 23.4667 246.505 23.2C246.532 23.12 246.545 23.0533 246.545 23C246.572 22.92 246.585 22.8533 246.585 22.8C246.585 22.5333 246.465 22.3733 246.225 22.32C246.012 22.24 245.798 22.2133 245.585 22.24H245.505C245.212 22.24 245.065 22.1733 245.065 22.04C245.065 21.96 245.092 21.88 245.145 21.8C245.225 21.72 245.292 21.6533 245.345 21.6C245.505 21.44 245.678 21.36 245.865 21.36C246.132 21.36 246.425 21.5333 246.745 21.88C247.038 22.28 247.185 22.6667 247.185 23.04C247.185 23.52 246.945 23.8933 246.465 24.16C246.012 24.4267 245.505 24.6133 244.945 24.72C244.385 24.8267 243.958 24.88 243.665 24.88C243.238 24.88 242.892 24.7867 242.625 24.6C242.598 24.6533 242.585 24.7733 242.585 24.96C242.585 25.7067 242.785 26.2133 243.185 26.48C243.585 26.72 243.918 26.9067 244.185 27.04C244.345 27.0933 244.478 27.12 244.585 27.12C244.958 27.12 245.345 26.96 245.745 26.64C246.172 26.32 246.545 25.88 246.865 25.32C247.105 24.8933 247.332 24.3867 247.545 23.8C247.758 23.2133 247.932 22.64 248.065 22.08C248.225 21.4933 248.305 21.0267 248.305 20.68Z" fill="black"/>
<path d="M258.553 20.72C258.553 21.3333 258.499 21.7867 258.393 22.08C258.313 22.3733 258.193 22.6133 258.033 22.8C257.899 22.9867 257.752 23.2 257.592 23.44C257.432 23.68 257.299 24.04 257.193 24.52C257.113 24.9733 257.073 25.64 257.073 26.52C257.073 26.8667 257.206 27.1467 257.473 27.36C257.739 27.5733 258.046 27.68 258.393 27.68C258.553 27.68 258.633 27.7333 258.633 27.84C258.633 27.9733 258.526 28.1333 258.312 28.32C258.126 28.5333 257.953 28.64 257.793 28.64C257.206 28.64 256.779 28.4133 256.513 27.96C256.246 27.48 256.113 26.9733 256.113 26.44C256.113 25.56 256.139 24.8667 256.193 24.36C256.246 23.8267 256.299 23.3333 256.353 22.88C256.406 22.4 256.419 21.8133 256.393 21.12C256.366 20.64 256.299 20.2667 256.193 20C256.086 19.7067 255.806 19.56 255.353 19.56C255.113 19.56 254.939 19.6 254.833 19.68C254.753 19.76 254.646 19.8933 254.513 20.08C254.219 20.5067 253.966 21.1067 253.753 21.88C253.566 22.6267 253.406 23.4267 253.273 24.28C253.166 25.1067 253.059 25.8533 252.953 26.52C252.873 27.16 252.793 27.5867 252.713 27.8C252.633 27.9867 252.526 28.12 252.393 28.2C252.286 28.28 252.166 28.32 252.033 28.32C251.926 28.32 251.819 28.2933 251.713 28.24C251.633 28.2133 251.566 28.1867 251.513 28.16C251.379 28.08 251.313 27.9467 251.313 27.76C251.313 27.5733 251.353 27.36 251.433 27.12C251.539 26.8533 251.619 26.6133 251.673 26.4C251.726 26.1867 251.806 25.8133 251.913 25.28C252.046 24.72 252.179 24.1467 252.313 23.56C252.446 22.9467 252.553 22.4267 252.633 22C252.739 21.5467 252.793 21.32 252.793 21.32C252.659 21.32 252.526 21.3333 252.393 21.36C252.259 21.36 252.126 21.36 251.993 21.36C251.593 21.36 251.393 21.2 251.393 20.88C251.393 20.6667 251.473 20.3467 251.633 19.92C251.793 19.4933 252.086 18.9333 252.513 18.24C252.646 18.0267 252.913 17.76 253.313 17.44C253.713 17.12 254.046 16.9867 254.313 17.04C254.419 16.9867 254.513 16.96 254.593 16.96C254.673 16.96 254.739 16.96 254.793 16.96C255.086 16.96 255.246 17.0667 255.273 17.28C255.326 17.4667 255.339 17.6667 255.313 17.88C255.286 18.0667 255.299 18.1467 255.353 18.12C255.726 17.96 256.099 17.88 256.473 17.88C257.033 17.88 257.513 18.1067 257.913 18.56C258.339 18.9867 258.553 19.7067 258.553 20.72Z" fill="black"/>
<path d="M21.2042 27.0476C21.1323 26.8789 21.1537 26.6009 21.1896 26.3865C21.4369 24.9272 21.8966 23.8376 22.4323 23.0218C21.4088 21.866 20.2879 21.6942 20.2333 21.687L20.0219 21.6625C19.6502 22.6235 19.0775 23.9151 18.6564 25.0974C18.5324 25.4447 18.3622 25.8003 18.1607 25.9419C17.9593 26.0835 17.4951 26.1668 17.1025 26.2813C15.2687 26.8165 13.9286 28.5095 13.9295 30.516C13.9295 32.9513 15.9041 34.9265 18.3397 34.9265C20.7752 34.9265 22.7498 32.9524 22.7498 30.5165C22.7504 29.3113 22.2666 28.2206 21.4831 27.4236C21.351 27.2903 21.2765 27.2153 21.2042 27.0476ZM18.3398 32.9003C17.0232 32.9003 15.9557 31.8325 15.9557 30.5159C15.9557 29.1998 17.0232 28.132 18.3398 28.132C19.6569 28.1315 20.7242 29.1987 20.7237 30.5159C20.7236 31.8325 19.6559 32.9003 18.3398 32.9003Z" fill="#003B46"/>
<path d="M31.3998 33.1684C31.9563 32.4297 32.2859 31.5118 32.2869 30.516C32.2864 28.5095 30.9464 26.8165 29.1123 26.2813C28.7202 26.1668 28.2563 26.0835 28.0543 25.9419C27.8534 25.7998 27.6832 25.4453 27.5593 25.0974C26.9517 23.393 26.0281 21.4563 25.8495 20.6223C25.8495 20.6223 24.6579 4.76775 24.4189 2.74099C24.1805 0.714798 23.8233 1.16348e-06 23.1075 1.16348e-06C22.3927 -0.00105352 22.0345 0.714798 21.7961 2.74099C21.5587 4.76775 20.3654 20.6223 20.3654 20.6223C20.3654 20.6223 24.1206 21.0388 25.0254 26.3865C25.0618 26.6009 25.0827 26.8795 25.0103 27.0476C24.939 27.2158 24.864 27.2902 24.7318 27.4245C23.9493 28.22 23.4652 29.3112 23.4652 30.5159C23.4657 32.9524 25.4398 34.9265 27.8757 34.9265C28.7087 34.9265 29.4881 34.6953 30.1534 34.2934C31.6621 35.6533 32.9215 36 32.9215 36L33.6368 34.6881C32.5508 34.3627 31.5669 33.348 31.3998 33.1684ZM23.1075 19.907C22.6467 19.907 22.2734 19.5332 22.2734 19.0725C22.2734 18.6117 22.6472 18.2379 23.1075 18.2384C23.5682 18.2384 23.9415 18.6117 23.9415 19.0725C23.9426 19.5327 23.5683 19.907 23.1075 19.907ZM27.8757 32.9003C26.5591 32.9003 25.4914 31.8325 25.4919 30.5165C25.4924 29.1988 26.5591 28.132 27.8752 28.132C29.1923 28.1315 30.2601 29.1987 30.2596 30.5165C30.2596 31.8331 29.1929 32.8998 27.8757 32.9003Z" fill="#003B46"/>
<path d="M9.34157 0.318657H1.30549C0.785948 0.318657 0.363159 0.741376 0.363159 1.26092V3.13931C0.363159 3.57553 0.718167 3.93061 1.15446 3.93061H6.91389C7.66174 3.93061 8.27036 4.53973 8.27036 5.28834C8.27036 6.03598 7.66174 6.64404 6.91389 6.64404H1.15453C0.718237 6.64404 0.36323 6.99912 0.36323 7.43534V8.26727C0.36323 8.70356 0.718237 9.05864 1.15453 9.05864H6.91396C7.66181 9.05864 8.27043 9.6672 8.27043 10.4153C8.27043 11.1634 7.66181 11.772 6.91396 11.772H1.15453C0.718237 11.772 0.36323 12.1271 0.36323 12.5634V13.3964C0.36323 13.8326 0.718237 14.1877 1.15453 14.1877H6.91396C7.66181 14.1877 8.27043 14.7963 8.27043 15.5443C8.27043 16.2919 7.66181 16.9 6.91396 16.9H1.15453C0.718237 16.9 0.36323 17.2551 0.36323 17.6913V18.5243C0.36323 18.9606 0.718237 19.3157 1.15453 19.3157H6.91396C7.66181 19.3157 8.27043 19.9237 8.27043 20.6713C8.27043 21.4194 7.66181 22.028 6.91396 22.028H1.15453C0.718237 22.028 0.36323 22.3831 0.36323 22.8194V23.6524C0.36323 24.0886 0.718237 24.4436 1.15453 24.4436H6.91396C7.66181 24.4436 8.27043 25.0523 8.27043 25.8003C8.27043 26.5479 7.66181 27.156 6.91396 27.156H1.15453C0.718237 27.156 0.36323 27.5111 0.36323 27.9473V28.7803C0.36323 29.2166 0.718237 29.5716 1.15453 29.5716H6.91396C7.66181 29.5716 8.27043 30.1797 8.27043 30.9273C8.27043 31.6754 7.66181 32.284 6.91396 32.284H1.15453C0.718237 32.284 0.36323 32.6391 0.36323 33.0754V34.7392C0.36323 35.2588 0.785948 35.6815 1.30556 35.6815H9.34157C10.6947 35.6815 11.7953 34.5804 11.7953 33.2274V2.77277C11.7953 1.41968 10.6947 0.318657 9.34157 0.318657Z" fill="#003B46"/>
</svg>
