<svg width="262" height="50" viewBox="0 0 262 50" fill="none" xmlns="http://www.w3.org/2000/svg">
<path d="M66.8 15.2C66.64 16.3467 66.3333 17.32 65.88 18.12C65.4267 18.92 64.92 19.6133 64.36 20.2C63.8267 20.7867 63.3067 21.36 62.8 21.92C62.9867 22.16 63.1867 22.52 63.4 23C63.64 23.4533 63.76 24.1467 63.76 25.08C63.76 25.3467 63.7467 25.6267 63.72 25.92C63.6933 26.2133 63.6533 26.5467 63.6 26.92C63.5467 27.2667 63.3867 27.7867 63.12 28.48C62.88 29.1733 62.52 29.9467 62.04 30.8C61.56 31.6533 60.9333 32.4667 60.16 33.24C59.3867 34.0133 58.4533 34.6533 57.36 35.16C56.2933 35.6667 55.0267 35.92 53.56 35.92C52.6267 35.92 51.96 35.7333 51.56 35.36C51.16 35.0133 50.8133 34.68 50.52 34.36C50.44 34.3067 50.3733 34.24 50.32 34.16C50.2667 34.08 50.2 34 50.12 33.92C49.8267 34.3467 49.4667 34.7333 49.04 35.08C48.64 35.4267 48.1867 35.6 47.68 35.6C47.2 35.6 46.8267 35.4 46.56 35C46.2933 34.6 46.16 34.16 46.16 33.68C46.16 33.12 46.2933 32.5867 46.56 32.08C46.8533 31.5733 47.1467 31.24 47.44 31.08C47.5733 31 47.7067 30.9467 47.84 30.92C48 30.8933 48.1333 30.88 48.24 30.88C48.56 30.88 48.8533 30.9733 49.12 31.16C49.4667 31.4533 49.76 31.76 50 32.08C50.2667 31.3067 50.5333 30.4667 50.8 29.56C51.0667 28.6533 51.2933 27.84 51.48 27.12C51.6933 26.3733 51.8267 25.8667 51.88 25.6C51.7733 25.3867 51.6 25.1333 51.36 24.84C51.12 24.52 51 24.08 51 23.52C51 23.4133 51 23.3067 51 23.2C51.0267 23.0667 51.0533 22.9333 51.08 22.8C51.32 21.7333 51.7067 21.0133 52.24 20.64C52.8 20.24 53.28 19.9067 53.68 19.64C53.8667 18.6 54.0267 17.7867 54.16 17.2C54.2933 16.6133 54.4133 16.1333 54.52 15.76C54.6533 15.3867 54.7867 15 54.92 14.6C55.08 14.1733 55.28 13.6133 55.52 12.92C55.6533 12.84 55.7733 12.76 55.88 12.68C56.0133 12.6 56.12 12.56 56.2 12.56C56.36 12.56 56.4 12.72 56.32 13.04C56.1867 13.6267 56.0533 14.48 55.92 15.6C55.7867 16.72 55.6133 17.88 55.4 19.08C55.5333 19.0533 55.6933 19.04 55.88 19.04C56.0667 19.0133 56.2533 19 56.44 19C57.2133 19 58.0933 19.12 59.08 19.36C60.0933 19.6 60.9733 20.04 61.72 20.68C62.4133 19.88 63.0133 19.08 63.52 18.28C64.0267 17.48 64.4133 16.3333 64.68 14.84C64.7067 14.7067 64.72 14.5867 64.72 14.48C64.7467 14.3467 64.76 14.2267 64.76 14.12C64.76 13.16 64.4533 12.36 63.84 11.72C63.2533 11.08 62.5467 10.6 61.72 10.28C60.92 9.93333 60.1867 9.76 59.52 9.76C59.3333 9.76 58.9733 9.78667 58.44 9.84C57.9333 9.86667 57.3333 9.97333 56.64 10.16C55.9733 10.3467 55.2933 10.6667 54.6 11.12C53.9067 11.5467 53.2933 12.16 52.76 12.96C52.5733 13.28 52.3733 13.6 52.16 13.92C51.9467 14.2133 51.8133 14.64 51.76 15.2C51.76 15.36 51.8133 15.48 51.92 15.56C52.0533 15.6133 52.1867 15.6267 52.32 15.6C52.7733 15.4933 53.1333 15.24 53.4 14.84C53.4533 14.68 53.48 14.5867 53.48 14.56C53.48 14.4267 53.4533 14.3067 53.4 14.2C53.3733 14.0667 53.3467 13.9467 53.32 13.84V13.8C53.32 13.6667 53.36 13.5467 53.44 13.44C53.5467 13.3067 53.6667 13.24 53.8 13.24C53.96 13.24 54.12 13.3467 54.28 13.56C54.3333 13.6667 54.36 13.8133 54.36 14C54.36 14.2933 54.3067 14.6267 54.2 15C54.12 15.3467 54 15.5867 53.84 15.72C53.5467 15.96 53.2267 16.16 52.88 16.32C52.56 16.48 52.2533 16.56 51.96 16.56C51.6667 16.56 51.4 16.48 51.16 16.32C50.92 16.16 50.8 15.88 50.8 15.48C50.8 15.16 50.8667 14.8133 51 14.44C51.1333 14.0667 51.24 13.7467 51.32 13.48C51.5333 12.7867 52.0533 12.08 52.88 11.36C53.7067 10.64 54.72 10.0267 55.92 9.52C57.1467 9.01333 58.4267 8.76 59.76 8.76C61.1467 8.76 62.36 9.05333 63.4 9.64C64.4667 10.2 65.3067 10.9333 65.92 11.84C66.5333 12.72 66.84 13.64 66.84 14.6C66.84 14.7067 66.84 14.8133 66.84 14.92C66.84 15 66.8267 15.0933 66.8 15.2ZM60.72 21.48C60.1333 21.1067 59.6 20.76 59.12 20.44C58.6667 20.12 58.04 19.96 57.24 19.96C56.68 19.96 55.96 20.08 55.08 20.32C54.8933 21.2267 54.7067 22.0133 54.52 22.68C54.3333 23.3467 54.1333 24.08 53.92 24.88C53.92 24.88 53.9733 24.8933 54.08 24.92C54.2133 24.92 54.3733 24.92 54.56 24.92C54.8533 24.92 55.2133 24.8933 55.64 24.84C56.0667 24.7867 56.48 24.6667 56.88 24.48C58.0267 24 58.8267 23.52 59.28 23.04C59.76 22.5333 60.24 22.0133 60.72 21.48ZM53.36 21.04C53.1467 21.1467 52.9067 21.3467 52.64 21.64C52.3733 21.9333 52.1333 22.32 51.92 22.8C51.8133 23.04 51.8267 23.3067 51.96 23.6C52.12 23.8933 52.2933 24.1867 52.48 24.48C52.6933 23.68 52.8667 23.0133 53 22.48C53.16 21.9467 53.28 21.4667 53.36 21.04ZM61.52 27.2C61.6 26.9067 61.6667 26.5867 61.72 26.24C61.7733 25.8667 61.8 25.5067 61.8 25.16C61.8 24.7867 61.76 24.4267 61.68 24.08C61.6267 23.7333 61.52 23.44 61.36 23.2C60.6933 23.8133 59.9867 24.3333 59.24 24.76C58.4933 25.16 57.7867 25.44 57.12 25.6C56.1867 25.84 55.4267 25.9867 54.84 26.04C54.2533 26.0667 53.8133 26.0667 53.52 26.04C53.2267 26.8667 53 27.52 52.84 28C52.68 28.4533 52.5333 28.8667 52.4 29.24C52.2933 29.5867 52.1467 30.0133 51.96 30.52C51.9333 30.6267 51.7867 30.9067 51.52 31.36C51.28 31.7867 50.9867 32.32 50.64 32.96C51.0133 33.4667 51.4267 33.9067 51.88 34.28C52.3333 34.6267 53.0133 34.8 53.92 34.8C55.2 34.8 56.3333 34.44 57.32 33.72C58.3333 33 59.2 32.0667 59.92 30.92C60.64 29.7467 61.1733 28.5067 61.52 27.2ZM49.48 33.2C49.2133 32.9067 48.96 32.6667 48.72 32.48C48.48 32.2933 48.2667 32.2 48.08 32.2C47.92 32.2 47.8 32.2667 47.72 32.4C47.6133 32.5067 47.4933 32.7467 47.36 33.12C47.2267 33.4667 47.16 33.8 47.16 34.12C47.16 34.6267 47.3333 34.88 47.68 34.88C47.9733 34.88 48.2133 34.7733 48.4 34.56C48.5867 34.3467 48.8267 34.1067 49.12 33.84C49.12 33.84 49.16 33.7733 49.24 33.64C49.32 33.48 49.4 33.3333 49.48 33.2ZM75.2922 30.12C74.9455 30.7067 74.5055 31.3467 73.9722 32.04C73.4389 32.7067 72.8789 33.28 72.2922 33.76C71.7322 34.24 71.1989 34.48 70.6922 34.48C69.8655 34.48 69.2122 34.44 68.7322 34.36C68.2789 34.2533 67.9055 34.1067 67.6122 33.92C67.1055 33.5733 66.6922 33.12 66.3722 32.56C66.0522 32 65.8655 31.4267 65.8122 30.84C65.7855 30.68 65.7722 30.52 65.7722 30.36C65.7722 30.2 65.7722 30.0533 65.7722 29.92C65.7722 28.3467 66.0789 26.96 66.6922 25.76C67.3055 24.56 68.1722 23.84 69.2922 23.6C69.6389 23.5467 69.9055 23.6933 70.0922 24.04C70.2789 24.36 70.3722 24.8 70.3722 25.36C70.3722 26.2133 70.1455 27.1333 69.6922 28.12C69.5055 28.52 69.3055 28.9067 69.0922 29.28C68.9055 29.6267 68.7455 29.9067 68.6122 30.12C68.2655 30.6267 67.9989 30.9733 67.8122 31.16C67.6522 31.32 67.5722 31.48 67.5722 31.64C67.5722 32.0667 67.8389 32.48 68.3722 32.88C68.9055 33.28 69.7322 33.48 70.8522 33.48C71.2789 33.48 71.7189 33.2933 72.1722 32.92C72.6255 32.5467 73.0655 32.08 73.4922 31.52C73.9455 30.96 74.3455 30.4 74.6922 29.84C74.8522 29.5733 74.9989 29.44 75.1322 29.44C75.2922 29.44 75.3722 29.56 75.3722 29.8C75.3722 29.9067 75.3455 30.0133 75.2922 30.12ZM69.2922 25.08C69.1855 24.92 68.9589 24.96 68.6122 25.2C68.2922 25.4133 67.9989 25.92 67.7322 26.72C67.5455 27.3067 67.4522 27.9867 67.4522 28.76C67.4522 28.9733 67.4522 29.1867 67.4522 29.4C67.4789 29.6133 67.5055 29.8267 67.5322 30.04C67.9855 29.2667 68.3055 28.6933 68.4922 28.32C68.7055 27.92 68.8655 27.5067 68.9722 27.08C69.0255 26.8667 69.1055 26.6 69.2122 26.28C69.3455 25.96 69.4122 25.68 69.4122 25.44C69.4122 25.28 69.3722 25.16 69.2922 25.08ZM86.5978 31.88C86.6778 31.8 86.7845 31.76 86.9178 31.76C87.1045 31.76 87.1978 31.8533 87.1978 32.04C87.1978 32.1467 87.1311 32.3067 86.9978 32.52C86.8911 32.7333 86.6511 32.9867 86.2778 33.28C85.9045 33.6 85.5178 33.8933 85.1178 34.16C84.7445 34.4267 84.2245 34.56 83.5578 34.56C82.8378 34.56 82.2645 34.4267 81.8378 34.16C81.4378 33.8933 81.1445 33.6 80.9578 33.28C80.7978 32.9333 80.6911 32.6667 80.6378 32.48C80.3178 32.72 79.9845 33.04 79.6378 33.44C79.3178 33.8133 78.8511 34.16 78.2378 34.48C77.6245 34.7733 76.7445 34.92 75.5978 34.92C74.9578 34.92 74.3711 34.7733 73.8378 34.48C73.3311 34.16 73.0778 33.48 73.0778 32.44C73.0778 32.1467 73.0911 31.84 73.1178 31.52C73.1711 31.1733 73.2511 30.8 73.3578 30.4C73.6778 29.1467 74.0511 28.16 74.4778 27.44C74.9045 26.72 75.5445 26.1867 76.3978 25.84C76.9311 25.6267 77.5845 25.4267 78.3578 25.24C79.1311 25.0533 79.8111 24.8933 80.3978 24.76C80.5845 24.7067 80.7445 24.5333 80.8778 24.24C81.0378 23.92 81.2111 23.6267 81.3978 23.36C81.5045 23.2267 81.6245 23.12 81.7578 23.04C81.8911 22.9333 82.0378 22.88 82.1978 22.88C82.3311 22.88 82.5045 22.9467 82.7178 23.08C82.9045 23.2133 83.0245 23.4667 83.0778 23.84C83.1578 24.2133 83.1978 24.56 83.1978 24.88C83.1711 25.04 83.1045 25.24 82.9978 25.48C82.9178 25.6933 82.8511 25.9333 82.7978 26.2C82.7445 26.5467 82.6111 27.04 82.3978 27.68C82.1845 28.32 82.0778 28.8533 82.0778 29.28C82.0778 29.6533 82.0511 30.12 81.9978 30.68C81.9445 31.2133 81.9445 31.5867 81.9978 31.8C82.2911 32.44 82.7045 32.8667 83.2378 33.08C83.7711 33.2667 84.2378 33.32 84.6378 33.24C84.9311 33.1867 85.2645 33.0133 85.6378 32.72C86.0111 32.4267 86.3311 32.1467 86.5978 31.88ZM80.1178 27.32C80.0645 27.1067 79.9311 26.88 79.7178 26.64C79.5311 26.4 79.2911 26.28 78.9978 26.28C78.9445 26.28 78.8378 26.3067 78.6778 26.36C78.2245 26.52 77.7445 26.8267 77.2378 27.28C76.7311 27.7067 76.2911 28.2667 75.9178 28.96C75.5445 29.6533 75.3311 30.4667 75.2778 31.4C75.2778 31.6667 75.3578 32.0133 75.5178 32.44C75.7045 32.8667 75.9445 33.2267 76.2378 33.52C76.5311 33.8133 76.8245 33.8933 77.1178 33.76C77.7578 33.4933 78.2911 33.12 78.7178 32.64C79.1711 32.1333 79.5445 31.52 79.8378 30.8C79.9711 30.4533 80.0645 30.0933 80.1178 29.72C80.1978 29.32 80.2378 28.9467 80.2378 28.6C80.2378 28.28 80.2245 28.0133 80.1978 27.8C80.1711 27.56 80.1445 27.4 80.1178 27.32ZM98.5963 32.48C97.9029 33.3067 97.3029 33.88 96.7963 34.2C96.2896 34.52 95.8496 34.68 95.4763 34.68C94.9963 34.68 94.5829 34.4933 94.2363 34.12C93.9163 33.72 93.6363 33.2933 93.3963 32.84C93.1829 32.3867 93.0096 32.0667 92.8763 31.88C92.3696 32.3333 91.7696 32.8133 91.0763 33.32C90.3829 33.8 89.8096 34.04 89.3563 34.04C88.5029 34.04 87.8363 33.8267 87.3563 33.4C86.8763 32.9467 86.6363 32.2933 86.6363 31.44C86.6363 30.56 86.7429 29.52 86.9563 28.32C87.1963 27.12 87.4896 25.9333 87.8363 24.76C88.1829 23.56 88.5163 22.56 88.8363 21.76C88.9163 21.52 89.0763 21.32 89.3163 21.16C89.5829 21 89.8496 20.92 90.1163 20.92C90.4363 20.92 90.6496 21 90.7563 21.16C90.8629 21.32 90.9163 21.5067 90.9163 21.72C90.9163 21.9867 90.8629 22.2533 90.7563 22.52C90.6763 22.76 90.6363 22.88 90.6363 22.88C90.3163 23.7867 89.9429 24.7333 89.5163 25.72C89.1163 26.7067 88.7429 27.8267 88.3963 29.08C88.3696 29.24 88.3296 29.4667 88.2763 29.76C88.2496 30.0533 88.2363 30.36 88.2363 30.68C88.2363 31.1333 88.2896 31.56 88.3963 31.96C88.5296 32.3333 88.7696 32.52 89.1163 32.52C89.4096 32.52 89.7963 32.3467 90.2763 32C90.7829 31.6533 91.2896 31.1733 91.7963 30.56C92.3029 29.9467 92.7029 29.24 92.9963 28.44C93.2629 27.72 93.5029 26.9333 93.7163 26.08C93.9296 25.2267 94.1163 24.4267 94.2763 23.68C94.4629 22.9067 94.6363 22.3067 94.7963 21.88C94.8763 21.6933 94.9963 21.6 95.1563 21.6C95.3696 21.6 95.5563 21.68 95.7163 21.84C95.9029 22 95.9696 22.1467 95.9163 22.28C95.8096 22.5467 95.6629 22.9867 95.4763 23.6C95.2896 24.2133 95.1029 24.8933 94.9163 25.64C94.7296 26.3867 94.5563 27.12 94.3963 27.84C94.2363 28.5333 94.1029 29.12 93.9963 29.6C93.8896 30.08 93.8363 30.3467 93.8363 30.4C93.8363 30.8 93.8763 31.16 93.9563 31.48C94.0363 31.8 94.1696 32.1467 94.3563 32.52C94.4896 32.7333 94.6496 32.9733 94.8363 33.24C95.0496 33.48 95.2629 33.6 95.4763 33.6C95.9829 33.6 96.4629 33.4267 96.9163 33.08C97.3963 32.7067 97.7563 32.3467 97.9963 32C98.1829 31.7067 98.3563 31.56 98.5163 31.56C98.6763 31.56 98.7563 31.7067 98.7563 32C98.7563 32.2133 98.7029 32.3733 98.5963 32.48ZM108.921 19.2C108.921 19.2 108.921 19.2933 108.921 19.48C108.947 19.6667 108.894 19.8933 108.761 20.16C108.627 20.4267 108.334 20.6933 107.881 20.96C107.721 21.0667 107.427 21.1467 107.001 21.2C106.574 21.2533 106.094 21.2933 105.561 21.32C105.267 22.0933 104.947 22.88 104.601 23.68C104.254 24.4533 103.894 25.1867 103.521 25.88C102.961 26.9467 102.481 27.7333 102.081 28.24C101.707 28.7467 101.414 29.1333 101.201 29.4C100.987 29.64 100.841 29.9333 100.761 30.28C100.734 30.44 100.707 30.5867 100.681 30.72C100.681 30.8533 100.681 30.9867 100.681 31.12C100.681 32.1067 100.961 32.8267 101.521 33.28C102.107 33.7333 102.667 33.96 103.201 33.96C103.814 33.96 104.427 33.7467 105.041 33.32C105.654 32.8667 106.161 32.4533 106.561 32.08C106.881 31.8133 107.121 31.68 107.281 31.68C107.387 31.68 107.441 31.7333 107.441 31.84C107.441 32.0267 107.294 32.32 107.001 32.72C106.841 32.9333 106.574 33.2267 106.201 33.6C105.827 33.9733 105.361 34.32 104.801 34.64C104.241 34.9333 103.614 35.08 102.921 35.08C101.534 35.08 100.601 34.76 100.121 34.12C99.6673 33.48 99.4406 32.4133 99.4406 30.92C99.4406 29.7467 99.5606 28.3067 99.8006 26.6C100.041 24.8667 100.414 23.04 100.921 21.12C100.787 21.12 100.654 21.12 100.521 21.12C100.387 21.0933 100.267 21.08 100.161 21.08C99.814 21.08 99.5473 21.1333 99.3606 21.24C99.2006 21.32 99.0673 21.36 98.9606 21.36C98.694 21.36 98.5606 21.16 98.5606 20.76C98.5606 20.3067 98.6806 19.96 98.9206 19.72C99.1073 19.5333 99.4273 19.44 99.8806 19.44C100.227 19.44 100.694 19.5067 101.281 19.64C101.334 19.48 101.387 19.3333 101.441 19.2C101.494 19.0667 101.534 18.9333 101.561 18.8C101.614 18.5333 101.667 18.32 101.721 18.16C101.774 18 101.841 17.8 101.921 17.56C102.374 16.2 102.867 14.8933 103.401 13.64C103.934 12.3867 104.707 11.2667 105.721 10.28C105.907 9.98667 106.161 9.84 106.481 9.84C106.721 9.84 106.934 9.94667 107.121 10.16C107.307 10.3467 107.387 10.5733 107.361 10.84C107.361 10.84 107.347 11.1733 107.321 11.84C107.294 12.5067 107.241 13.32 107.161 14.28C107.081 15.2133 106.961 16.1067 106.801 16.96C106.721 17.4667 106.601 18.0133 106.441 18.6C106.307 19.16 106.134 19.7333 105.921 20.32C106.081 20.3467 106.227 20.3733 106.361 20.4C106.521 20.4 106.667 20.4 106.801 20.4C107.201 20.4 107.507 20.3467 107.721 20.24C107.961 20.1067 108.094 19.9733 108.121 19.84C108.174 19.7067 108.201 19.64 108.201 19.64C108.201 19.1067 108.334 18.84 108.601 18.84C108.734 18.84 108.841 18.96 108.921 19.2ZM106.081 12.52C105.921 12.4933 105.667 12.8 105.321 13.44C104.974 14.08 104.601 14.92 104.201 15.96C103.801 17 103.414 18.1067 103.041 19.28C103.014 19.3867 102.987 19.4933 102.961 19.6C102.934 19.68 102.907 19.7733 102.881 19.88C103.067 19.9333 103.254 19.9733 103.441 20C103.627 20.0267 103.827 20.0667 104.041 20.12C104.147 20.1467 104.267 20.16 104.401 20.16C104.534 20.16 104.654 20.1867 104.761 20.24C104.867 19.9467 104.961 19.6933 105.041 19.48C105.121 19.24 105.201 19.0267 105.281 18.84C105.574 17.8533 105.814 16.84 106.001 15.8C106.187 14.76 106.281 13.9467 106.281 13.36C106.281 12.88 106.214 12.6 106.081 12.52ZM104.321 21.32H103.601C103.414 21.32 103.227 21.32 103.041 21.32C102.881 21.32 102.721 21.3067 102.561 21.28C102.321 22.2933 102.081 23.3867 101.841 24.56C101.627 25.7067 101.454 26.7333 101.321 27.64C101.641 27.2667 101.974 26.7333 102.321 26.04C102.667 25.3467 103.014 24.5867 103.361 23.76C103.707 22.9067 104.027 22.0933 104.321 21.32ZM116.954 23.16C117.114 23.4 117.194 23.6667 117.194 23.96C117.194 24.5467 116.994 25.2933 116.594 26.2C116.221 27.08 115.834 28.0533 115.434 29.12C115.034 30.1867 114.821 31.28 114.794 32.4C114.768 33.84 114.741 35.32 114.714 36.84C114.714 38.36 114.541 39.84 114.194 41.28C113.874 42.7467 113.194 44.08 112.154 45.28C111.301 46.2667 110.394 46.9333 109.434 47.28C108.501 47.6533 107.514 47.84 106.474 47.84C106.288 47.84 106.088 47.8267 105.874 47.8C105.661 47.8 105.448 47.7867 105.234 47.76C104.728 47.7067 104.181 47.4667 103.594 47.04C103.008 46.6133 102.501 46 102.074 45.2C101.648 44.4 101.434 43.4267 101.434 42.28C101.434 41.88 101.474 41.44 101.554 40.96C101.688 40.16 101.888 39.3467 102.154 38.52C102.421 37.72 102.808 37.0533 103.314 36.52C103.821 35.9867 104.501 35.72 105.354 35.72C106.048 35.72 106.701 35.9733 107.314 36.48C107.928 37.0133 108.434 37.6133 108.834 38.28C109.261 38.9467 109.541 39.5333 109.674 40.04C109.754 40.36 109.821 40.6933 109.874 41.04C109.954 41.4133 109.994 41.7733 109.994 42.12C109.994 42.7333 109.874 43.16 109.634 43.4C109.368 43.6933 109.034 43.84 108.634 43.84C108.341 43.84 107.994 43.76 107.594 43.6C107.328 43.5467 107.008 43.36 106.634 43.04C106.288 42.7467 106.114 42.36 106.114 41.88C106.114 41.56 106.181 41.2533 106.314 40.96C106.474 40.6667 106.608 40.4667 106.714 40.36C106.928 40.2 107.074 40.12 107.154 40.12C107.288 40.12 107.381 40.2933 107.434 40.64V40.68C107.434 40.7867 107.381 40.8933 107.274 41C107.168 41.1067 107.128 41.2933 107.154 41.56C107.208 41.9333 107.354 42.2 107.594 42.36C107.834 42.5467 108.008 42.64 108.114 42.64C108.461 42.64 108.634 42.2933 108.634 41.6C108.634 41.04 108.474 40.36 108.154 39.56C107.888 38.8933 107.514 38.32 107.034 37.84C106.554 37.36 105.994 37.0667 105.354 36.96C105.034 36.9067 104.688 36.9867 104.314 37.2C103.914 37.4133 103.568 37.8267 103.274 38.44C103.088 38.7867 102.968 39.1733 102.914 39.6C102.834 40.0267 102.794 40.4667 102.794 40.92C102.794 41.4267 102.834 41.9067 102.914 42.36C102.968 43.8267 103.354 44.8933 104.074 45.56C104.768 46.2533 105.688 46.6 106.834 46.6C106.994 46.6 107.154 46.5867 107.314 46.56C107.501 46.56 107.688 46.5467 107.874 46.52C108.674 46.4133 109.448 46.0133 110.194 45.32C110.941 44.6267 111.568 43.8267 112.074 42.92C112.501 42.1467 112.768 41.5067 112.874 41C113.008 40.4933 113.074 39.88 113.074 39.16C113.074 38.7067 113.061 38.2 113.034 37.64C113.034 37.08 113.034 36.3867 113.034 35.56C113.034 35.0267 113.034 34.4267 113.034 33.76C113.061 33.0933 113.088 32.3467 113.114 31.52C111.701 32.2667 110.541 32.64 109.634 32.64C108.914 32.64 108.248 32.4133 107.634 31.96C107.421 31.8 107.261 31.6 107.154 31.36C107.074 31.0933 107.034 30.8133 107.034 30.52C107.034 29.88 107.194 29.1733 107.514 28.4C107.834 27.6 108.208 26.8667 108.634 26.2C109.061 25.5067 109.434 25 109.754 24.68C109.941 24.36 110.154 24.2 110.394 24.2C110.608 24.2 110.781 24.3333 110.914 24.6C111.048 24.84 111.048 25.0133 110.914 25.12C110.568 25.4133 110.274 25.7733 110.034 26.2C109.794 26.6267 109.568 27.0667 109.354 27.52C109.168 27.9733 109.074 28.56 109.074 29.28C109.074 29.5467 109.088 29.8133 109.114 30.08C109.168 30.3467 109.248 30.5467 109.354 30.68C109.488 30.84 109.728 30.92 110.074 30.92C110.394 30.92 110.754 30.8533 111.154 30.72C111.554 30.56 111.888 30.36 112.154 30.12C112.794 29.5333 113.248 28.92 113.514 28.28C113.808 27.6133 114.034 26.9733 114.194 26.36C114.274 26.04 114.368 25.6667 114.474 25.24C114.581 24.7867 114.634 24.3333 114.634 23.88C114.634 23.72 114.808 23.5067 115.154 23.24C115.501 22.9467 115.861 22.8 116.234 22.8C116.528 22.8 116.768 22.92 116.954 23.16ZM139.362 15.28C139.122 15.9467 138.776 16.52 138.322 17C137.869 17.4533 137.189 17.68 136.282 17.68C135.856 17.68 135.469 17.6 135.122 17.44C134.776 17.2533 134.496 16.9467 134.282 16.52C134.122 16.2267 134.042 15.9067 134.042 15.56C134.042 15.1333 134.149 14.7467 134.362 14.4C134.602 14.0533 134.936 13.8667 135.362 13.84C135.416 13.84 135.469 13.84 135.522 13.84C135.602 13.8133 135.656 13.8 135.682 13.8C136.109 13.8 136.442 13.96 136.682 14.28C136.762 14.3867 136.802 14.4933 136.802 14.6C136.802 14.7867 136.696 14.9867 136.482 15.2C136.296 15.3867 136.109 15.5867 135.922 15.8C135.762 16.0133 135.722 16.2533 135.802 16.52C135.962 17 136.256 17.24 136.682 17.24C137.082 17.24 137.509 17.0267 137.962 16.6C138.442 16.1467 138.816 15.52 139.082 14.72C139.162 14.56 139.202 14.3733 139.202 14.16C139.202 13.76 139.042 13.3467 138.722 12.92C138.402 12.4933 137.989 12.1867 137.482 12C137.269 11.92 137.029 11.8533 136.762 11.8C136.522 11.7467 136.282 11.72 136.042 11.72C135.082 11.72 134.136 12 133.202 12.56C132.269 13.12 131.629 13.8933 131.282 14.88C131.149 15.2267 131.056 15.56 131.002 15.88C130.949 16.2 130.922 16.4933 130.922 16.76C130.922 17.5333 131.122 18.1867 131.522 18.72C131.922 19.2533 132.429 19.7333 133.042 20.16C133.682 20.5867 134.349 21.0267 135.042 21.48C135.736 21.9067 136.389 22.4 137.002 22.96C137.642 23.52 138.162 24.2 138.562 25C138.962 25.8 139.162 26.7867 139.162 27.96C139.162 28.6267 139.082 29.3733 138.922 30.2C138.762 31.0267 138.496 31.9467 138.122 32.96C137.669 34.1867 136.989 35.2933 136.082 36.28C135.202 37.2933 134.176 38.0933 133.002 38.68C131.856 39.2667 130.642 39.56 129.362 39.56C128.482 39.56 127.602 39.4 126.722 39.08C125.416 38.6 124.536 37.9867 124.082 37.24C123.602 36.52 123.362 35.7867 123.362 35.04C123.362 34.5333 123.429 34.0533 123.562 33.6C123.696 33.1467 123.816 32.7467 123.922 32.4C124.109 31.8667 124.482 31.32 125.042 30.76C125.629 30.2 126.282 29.7333 127.002 29.36C127.722 28.96 128.389 28.76 129.002 28.76C129.269 28.76 129.522 28.8 129.762 28.88C130.269 29.0133 130.522 29.5467 130.522 30.48C130.522 30.7467 130.496 31.0133 130.442 31.28C130.389 31.5467 130.309 31.8267 130.202 32.12C130.016 32.6267 129.736 33.04 129.362 33.36C129.016 33.68 128.549 33.84 127.962 33.84C127.669 33.84 127.389 33.8267 127.122 33.8C126.882 33.7467 126.696 33.6133 126.562 33.4C126.536 33.3467 126.509 33.2933 126.482 33.24C126.482 33.1867 126.482 33.1333 126.482 33.08C126.482 32.6533 126.696 32.2933 127.122 32C127.336 31.84 127.536 31.84 127.722 32C127.909 32.16 128.096 32.3333 128.282 32.52C128.496 32.68 128.722 32.7333 128.962 32.68C129.389 32.5733 129.669 32.3333 129.802 31.96C129.936 31.5867 130.002 31.1733 130.002 30.72C130.002 30.5867 130.002 30.4533 130.002 30.32C130.002 30.1867 129.989 30.0533 129.962 29.92C129.936 29.4667 129.709 29.24 129.282 29.24C128.962 29.24 128.562 29.3733 128.082 29.64C127.629 29.9067 127.162 30.24 126.682 30.64C126.229 31.0133 125.829 31.4 125.482 31.8C125.136 32.1733 124.922 32.4667 124.842 32.68C124.602 33.3467 124.482 33.9733 124.482 34.56C124.482 35.9733 125.229 36.96 126.722 37.52C126.882 37.5733 127.069 37.6 127.282 37.6C127.816 37.6 128.536 37.48 129.442 37.24C130.376 37 131.362 36.6133 132.402 36.08C133.442 35.5467 134.416 34.8267 135.322 33.92C136.229 33.0133 136.922 31.8933 137.402 30.56C137.642 29.92 137.816 29.3333 137.922 28.8C138.029 28.2667 138.082 27.7733 138.082 27.32C138.082 26.3067 137.856 25.4667 137.402 24.8C136.976 24.1067 136.402 23.5333 135.682 23.08C134.989 22.6267 134.256 22.2133 133.482 21.84C132.709 21.4667 131.962 21.08 131.242 20.68C130.549 20.2533 129.976 19.76 129.522 19.2C129.096 18.6133 128.882 17.88 128.882 17C128.882 16.68 128.909 16.3333 128.962 15.96C129.042 15.56 129.162 15.1467 129.322 14.72C129.856 13.2267 130.629 12.16 131.642 11.52C132.682 10.88 133.776 10.56 134.922 10.56C135.402 10.56 135.882 10.6133 136.362 10.72C136.842 10.8 137.309 10.92 137.762 11.08C138.536 11.3467 139.056 11.68 139.322 12.08C139.616 12.48 139.762 12.92 139.762 13.4C139.762 13.6933 139.722 14 139.642 14.32C139.589 14.6133 139.496 14.9333 139.362 15.28ZM154.371 31.88C154.451 31.8 154.558 31.76 154.691 31.76C154.878 31.76 154.971 31.8533 154.971 32.04C154.971 32.1467 154.905 32.3067 154.771 32.52C154.665 32.7333 154.425 32.9867 154.051 33.28C153.678 33.6 153.291 33.8933 152.891 34.16C152.518 34.4267 151.998 34.56 151.331 34.56C150.611 34.56 150.038 34.4267 149.611 34.16C149.211 33.8933 148.918 33.6 148.731 33.28C148.571 32.9333 148.465 32.6667 148.411 32.48C148.091 32.72 147.758 33.04 147.411 33.44C147.091 33.8133 146.625 34.16 146.011 34.48C145.398 34.7733 144.518 34.92 143.371 34.92C142.731 34.92 142.145 34.7733 141.611 34.48C141.105 34.16 140.851 33.48 140.851 32.44C140.851 32.1467 140.865 31.84 140.891 31.52C140.945 31.1733 141.025 30.8 141.131 30.4C141.451 29.1467 141.825 28.16 142.251 27.44C142.678 26.72 143.318 26.1867 144.171 25.84C144.705 25.6267 145.358 25.4267 146.131 25.24C146.905 25.0533 147.585 24.8933 148.171 24.76C148.358 24.7067 148.518 24.5333 148.651 24.24C148.811 23.92 148.985 23.6267 149.171 23.36C149.278 23.2267 149.398 23.12 149.531 23.04C149.665 22.9333 149.811 22.88 149.971 22.88C150.105 22.88 150.278 22.9467 150.491 23.08C150.678 23.2133 150.798 23.4667 150.851 23.84C150.931 24.2133 150.971 24.56 150.971 24.88C150.945 25.04 150.878 25.24 150.771 25.48C150.691 25.6933 150.625 25.9333 150.571 26.2C150.518 26.5467 150.385 27.04 150.171 27.68C149.958 28.32 149.851 28.8533 149.851 29.28C149.851 29.6533 149.825 30.12 149.771 30.68C149.718 31.2133 149.718 31.5867 149.771 31.8C150.065 32.44 150.478 32.8667 151.011 33.08C151.545 33.2667 152.011 33.32 152.411 33.24C152.705 33.1867 153.038 33.0133 153.411 32.72C153.785 32.4267 154.105 32.1467 154.371 31.88ZM147.891 27.32C147.838 27.1067 147.705 26.88 147.491 26.64C147.305 26.4 147.065 26.28 146.771 26.28C146.718 26.28 146.611 26.3067 146.451 26.36C145.998 26.52 145.518 26.8267 145.011 27.28C144.505 27.7067 144.065 28.2667 143.691 28.96C143.318 29.6533 143.105 30.4667 143.051 31.4C143.051 31.6667 143.131 32.0133 143.291 32.44C143.478 32.8667 143.718 33.2267 144.011 33.52C144.305 33.8133 144.598 33.8933 144.891 33.76C145.531 33.4933 146.065 33.12 146.491 32.64C146.945 32.1333 147.318 31.52 147.611 30.8C147.745 30.4533 147.838 30.0933 147.891 29.72C147.971 29.32 148.011 28.9467 148.011 28.6C148.011 28.28 147.998 28.0133 147.971 27.8C147.945 27.56 147.918 27.4 147.891 27.32ZM167.25 32.92C167.17 33.08 166.916 33.3733 166.49 33.8C166.09 34.2 165.583 34.44 164.97 34.52C164.543 34.5733 164.236 34.3333 164.05 33.8C163.89 33.24 163.81 32.6 163.81 31.88C163.81 31.5867 163.823 31.2933 163.85 31C163.876 30.68 163.916 30.3867 163.97 30.12C164.023 29.8267 164.076 29.5467 164.13 29.28C164.183 29.0133 164.21 28.7867 164.21 28.6C164.21 28.1467 164.036 27.9733 163.69 28.08C163.45 28.3733 163.223 28.8133 163.01 29.4C162.823 29.9867 162.663 30.4267 162.53 30.72C162.236 31.3867 161.996 31.9467 161.81 32.4C161.623 32.8533 161.383 33.08 161.09 33.08C160.85 33.08 160.73 32.8533 160.73 32.4C160.73 32.0267 160.783 31.64 160.89 31.24C160.996 30.84 161.05 30.64 161.05 30.64C161.183 30.2667 161.303 29.8533 161.41 29.4C161.543 28.92 161.65 28.5067 161.73 28.16C161.81 27.7867 161.85 27.6 161.85 27.6C161.85 27.5467 161.85 27.4667 161.85 27.36C161.876 27.2533 161.89 27.1467 161.89 27.04C161.89 26.8267 161.85 26.6267 161.77 26.44C161.716 26.2533 161.556 26.1467 161.29 26.12C161.13 26.0933 160.863 26.2533 160.49 26.6C160.143 26.92 159.783 27.32 159.41 27.8C159.063 28.2533 158.783 28.68 158.57 29.08C158.223 29.8 157.983 30.5333 157.85 31.28C157.716 32.0267 157.596 32.72 157.49 33.36C157.41 33.9733 157.263 34.48 157.05 34.88C156.97 35.04 156.81 35.12 156.57 35.12C156.383 35.12 156.183 35.0667 155.97 34.96C155.783 34.8267 155.69 34.68 155.69 34.52C155.743 34.04 155.85 33.4667 156.01 32.8C156.196 32.1333 156.396 31.3333 156.61 30.4C156.69 30.08 156.756 29.7067 156.81 29.28C156.863 28.8533 156.903 28.5333 156.93 28.32V28.24C156.93 27.8667 156.756 27.68 156.41 27.68C156.276 27.68 156.13 27.72 155.97 27.8C155.463 28.2267 155.036 28.6933 154.69 29.2C154.343 29.7067 154.063 30.1467 153.85 30.52C153.61 30.8933 153.396 31.12 153.21 31.2C153.13 31.2267 153.09 31.1467 153.09 30.96C153.09 30.8533 153.103 30.7333 153.13 30.6C153.156 30.4667 153.223 30.3333 153.33 30.2C153.57 29.96 153.823 29.5733 154.09 29.04C154.356 28.5067 154.636 27.96 154.93 27.4C155.25 26.8133 155.596 26.32 155.97 25.92C156.37 25.4933 156.796 25.28 157.25 25.28C157.516 25.28 157.783 25.4667 158.05 25.84C158.343 26.2133 158.516 26.6933 158.57 27.28C159.023 26.9067 159.45 26.5067 159.85 26.08C160.25 25.6267 160.716 25.2267 161.25 24.88C161.463 24.7733 161.69 24.72 161.93 24.72C162.33 24.72 162.596 24.84 162.73 25.08C162.916 25.32 163.023 25.6667 163.05 26.12C163.076 26.5733 163.116 26.8133 163.17 26.84C163.223 26.8667 163.343 26.7867 163.53 26.6C163.743 26.3867 164.036 26.3067 164.41 26.36C164.543 26.36 164.73 26.44 164.97 26.6C165.21 26.76 165.33 26.96 165.33 27.2C165.33 27.5467 165.303 27.9733 165.25 28.48C165.196 28.96 165.13 29.4667 165.05 30C165.023 30.1067 165.01 30.2533 165.01 30.44C165.01 30.6 165.01 30.7867 165.01 31C165.01 31.3467 165.036 31.72 165.09 32.12C165.17 32.4933 165.343 32.7733 165.61 32.96C165.69 33.04 165.796 33.08 165.93 33.08C166.223 33.08 166.61 32.8267 167.09 32.32C167.17 32.24 167.236 32.2 167.29 32.2C167.37 32.2 167.41 32.28 167.41 32.44C167.41 32.6533 167.356 32.8133 167.25 32.92ZM180.096 31.92C179.349 32.88 178.669 33.5867 178.056 34.04C177.469 34.4667 176.869 34.7333 176.256 34.84C175.669 34.9467 175.002 35 174.256 35C173.589 35 172.962 34.9467 172.376 34.84C171.789 34.7333 171.362 34.5867 171.096 34.4C171.016 34.9333 170.936 35.5733 170.856 36.32C170.802 37.0933 170.629 38.2267 170.336 39.72C169.909 41.8 169.322 43.52 168.576 44.88C167.856 46.24 166.936 47 165.816 47.16C165.416 47.2133 165.136 47.0267 164.976 46.6C164.816 46.2 164.736 45.7067 164.736 45.12C164.736 44.5867 164.789 44.0267 164.896 43.44C165.002 42.8533 165.122 42.32 165.256 41.84C165.576 40.7467 165.842 39.92 166.056 39.36C166.242 38.8267 166.416 38.3867 166.576 38.04C166.709 37.72 166.856 37.3467 167.016 36.92C167.176 36.52 167.376 35.9333 167.616 35.16C167.696 34.8933 167.789 34.5867 167.896 34.24C168.029 33.8667 168.176 33.4667 168.336 33.04C168.309 32.8267 168.256 32.68 168.176 32.6C168.096 32.52 168.056 32.4 168.056 32.24C168.056 31.76 168.296 31.3867 168.776 31.12C169.282 30.8533 169.682 30.76 169.976 30.84C170.029 30.3067 170.069 29.6533 170.096 28.88C170.122 28.1067 170.176 27.3333 170.256 26.56C170.362 25.76 170.509 25.0533 170.696 24.44C170.882 23.8267 171.136 23.4 171.456 23.16C171.669 23.1067 171.842 23.08 171.976 23.08C172.376 23.08 172.629 23.2 172.736 23.44C172.762 23.4933 172.776 23.6 172.776 23.76V24.12C172.776 24.3067 172.816 24.4267 172.896 24.48C173.242 24.64 173.682 24.72 174.216 24.72C174.749 24.72 175.189 24.8267 175.536 25.04C175.909 25.2533 176.242 25.6 176.536 26.08C176.829 26.5333 176.976 27.16 176.976 27.96C176.976 28.2267 176.909 28.6933 176.776 29.36C176.669 30.0267 176.416 30.7333 176.016 31.48C175.642 32.2267 175.056 32.84 174.256 33.32C174.762 33.5333 175.256 33.64 175.736 33.64C176.402 33.64 177.082 33.44 177.776 33.04C178.469 32.6133 179.189 31.9067 179.936 30.92C180.069 30.76 180.176 30.68 180.256 30.68C180.416 30.68 180.496 30.7867 180.496 31C180.496 31.24 180.362 31.5467 180.096 31.92ZM175.736 27.44C175.736 26.96 175.496 26.52 175.016 26.12C174.562 25.6933 174.096 25.48 173.616 25.48C173.029 25.48 172.576 25.76 172.256 26.32C171.936 26.8533 171.696 27.5733 171.536 28.48C171.376 29.36 171.216 30.32 171.056 31.36C171.082 31.3867 171.096 31.4 171.096 31.4C171.122 31.4 171.136 31.4 171.136 31.4C171.189 31.4 171.229 31.3867 171.256 31.36C171.309 31.3333 171.362 31.32 171.416 31.32C171.469 31.32 171.549 31.3333 171.656 31.36C171.762 31.3867 171.869 31.4667 171.976 31.6C172.269 31.84 172.536 32.04 172.776 32.2C173.042 32.36 173.229 32.44 173.336 32.44C173.602 32.44 173.869 32.2933 174.136 32C174.429 31.7067 174.696 31.3467 174.936 30.92C175.176 30.4933 175.349 30.1067 175.456 29.76C175.616 29.28 175.696 28.8133 175.696 28.36C175.722 27.88 175.736 27.5733 175.736 27.44ZM173.056 33.12C173.056 33.12 172.896 33.0667 172.576 32.96C172.256 32.8533 171.949 32.7067 171.656 32.52C171.602 32.4933 171.522 32.48 171.416 32.48C171.282 32.48 171.216 32.5867 171.216 32.8C171.216 32.9067 171.242 33.0267 171.296 33.16C171.349 33.2667 171.429 33.3467 171.536 33.4C171.856 33.48 172.189 33.4533 172.536 33.32C172.882 33.1867 173.056 33.12 173.056 33.12ZM169.736 33.88C169.682 33.8267 169.589 33.7867 169.456 33.76C169.349 33.7067 169.242 33.6533 169.136 33.6C168.762 34.9067 168.389 36.08 168.016 37.12C167.669 38.16 167.336 39.2 167.016 40.24C166.722 41.28 166.456 42.48 166.216 43.84C166.189 44.0267 166.176 44.1867 166.176 44.32C166.149 44.48 166.136 44.6133 166.136 44.72C166.136 45.0667 166.202 45.24 166.336 45.24C166.469 45.24 166.629 45.12 166.816 44.88C167.002 44.6667 167.162 44.44 167.296 44.2C167.989 43.1333 168.429 42.2533 168.616 41.56C168.829 40.8667 168.949 40.2133 168.976 39.6C169.002 39.0133 169.096 38.3333 169.256 37.56C169.362 37.0267 169.456 36.48 169.536 35.92C169.642 35.3867 169.709 34.92 169.736 34.52C169.789 34.12 169.789 33.9067 169.736 33.88ZM190.215 31.4C190.002 31.88 189.535 32.4533 188.815 33.12C188.122 33.7867 187.295 34.3733 186.335 34.88C185.402 35.36 184.455 35.6 183.495 35.6C182.109 35.6 181.175 35.2 180.695 34.4C180.215 33.5733 179.975 32.4667 179.975 31.08C179.975 30.1467 180.055 29 180.215 27.64C180.375 26.28 180.615 24.8133 180.935 23.24C181.255 21.6667 181.655 20.08 182.135 18.48C182.615 16.96 183.135 15.48 183.695 14.04C184.255 12.6 185.095 11.3467 186.215 10.28C186.402 9.98667 186.642 9.84 186.935 9.84C187.175 9.84 187.389 9.94667 187.575 10.16C187.762 10.3467 187.842 10.5733 187.815 10.84C187.815 10.84 187.802 11.1733 187.775 11.84C187.775 12.5067 187.735 13.32 187.655 14.28C187.575 15.2133 187.455 16.1067 187.295 16.96C187.055 18.4 186.615 19.92 185.975 21.52C185.362 23.12 184.709 24.5733 184.015 25.88C183.455 26.9733 183.002 27.76 182.655 28.24C182.335 28.72 182.082 29.0667 181.895 29.28C181.735 29.4933 181.615 29.7733 181.535 30.12C181.509 30.3067 181.482 30.52 181.455 30.76C181.455 30.9733 181.455 31.2 181.455 31.44C181.455 31.92 181.482 32.3867 181.535 32.84C181.615 33.2667 181.709 33.5467 181.815 33.68C182.109 33.9733 182.429 34.1867 182.775 34.32C183.122 34.4533 183.469 34.52 183.815 34.52C184.109 34.52 184.375 34.48 184.615 34.4C185.522 34.1333 186.442 33.6933 187.375 33.08C188.335 32.4667 189.015 31.8667 189.415 31.28C189.602 31.0133 189.749 30.84 189.855 30.76C189.989 30.6533 190.095 30.6 190.175 30.6C190.309 30.6 190.375 30.6933 190.375 30.88C190.375 30.9333 190.362 31.0133 190.335 31.12C190.309 31.2 190.269 31.2933 190.215 31.4ZM186.575 12.52C186.309 12.4667 185.882 13.0533 185.295 14.28C184.735 15.5067 184.149 17.1733 183.535 19.28C183.349 19.92 183.135 20.7333 182.895 21.72C182.682 22.7067 182.469 23.7333 182.255 24.8C182.042 25.84 181.882 26.7867 181.775 27.64C182.629 25.9067 183.402 24.3467 184.095 22.96C184.789 21.5733 185.322 20.28 185.695 19.08C186.042 18.12 186.295 17.0933 186.455 16C186.642 14.9067 186.735 14.04 186.735 13.4C186.735 12.8933 186.682 12.6 186.575 12.52ZM198.3 30.12C197.953 30.7067 197.513 31.3467 196.98 32.04C196.447 32.7067 195.887 33.28 195.3 33.76C194.74 34.24 194.207 34.48 193.7 34.48C192.873 34.48 192.22 34.44 191.74 34.36C191.287 34.2533 190.913 34.1067 190.62 33.92C190.113 33.5733 189.7 33.12 189.38 32.56C189.06 32 188.873 31.4267 188.82 30.84C188.793 30.68 188.78 30.52 188.78 30.36C188.78 30.2 188.78 30.0533 188.78 29.92C188.78 28.3467 189.087 26.96 189.7 25.76C190.313 24.56 191.18 23.84 192.3 23.6C192.647 23.5467 192.913 23.6933 193.1 24.04C193.287 24.36 193.38 24.8 193.38 25.36C193.38 26.2133 193.153 27.1333 192.7 28.12C192.513 28.52 192.313 28.9067 192.1 29.28C191.913 29.6267 191.753 29.9067 191.62 30.12C191.273 30.6267 191.007 30.9733 190.82 31.16C190.66 31.32 190.58 31.48 190.58 31.64C190.58 32.0667 190.847 32.48 191.38 32.88C191.913 33.28 192.74 33.48 193.86 33.48C194.287 33.48 194.727 33.2933 195.18 32.92C195.633 32.5467 196.073 32.08 196.5 31.52C196.953 30.96 197.353 30.4 197.7 29.84C197.86 29.5733 198.007 29.44 198.14 29.44C198.3 29.44 198.38 29.56 198.38 29.8C198.38 29.9067 198.353 30.0133 198.3 30.12ZM192.3 25.08C192.193 24.92 191.967 24.96 191.62 25.2C191.3 25.4133 191.007 25.92 190.74 26.72C190.553 27.3067 190.46 27.9867 190.46 28.76C190.46 28.9733 190.46 29.1867 190.46 29.4C190.487 29.6133 190.513 29.8267 190.54 30.04C190.993 29.2667 191.313 28.6933 191.5 28.32C191.713 27.92 191.873 27.5067 191.98 27.08C192.033 26.8667 192.113 26.6 192.22 26.28C192.353 25.96 192.42 25.68 192.42 25.44C192.42 25.28 192.38 25.16 192.3 25.08ZM217.253 15.28C217.013 15.9467 216.666 16.52 216.213 17C215.759 17.4533 215.079 17.68 214.173 17.68C213.746 17.68 213.359 17.6 213.013 17.44C212.666 17.2533 212.386 16.9467 212.173 16.52C212.013 16.2267 211.933 15.9067 211.933 15.56C211.933 15.1333 212.039 14.7467 212.253 14.4C212.493 14.0533 212.826 13.8667 213.253 13.84C213.306 13.84 213.359 13.84 213.413 13.84C213.493 13.8133 213.546 13.8 213.573 13.8C213.999 13.8 214.333 13.96 214.573 14.28C214.653 14.3867 214.693 14.4933 214.693 14.6C214.693 14.7867 214.586 14.9867 214.373 15.2C214.186 15.3867 213.999 15.5867 213.813 15.8C213.653 16.0133 213.613 16.2533 213.693 16.52C213.853 17 214.146 17.24 214.573 17.24C214.973 17.24 215.399 17.0267 215.853 16.6C216.333 16.1467 216.706 15.52 216.973 14.72C217.053 14.56 217.093 14.3733 217.093 14.16C217.093 13.76 216.933 13.3467 216.613 12.92C216.293 12.4933 215.879 12.1867 215.373 12C215.159 11.92 214.919 11.8533 214.653 11.8C214.413 11.7467 214.173 11.72 213.933 11.72C212.973 11.72 212.026 12 211.093 12.56C210.159 13.12 209.519 13.8933 209.173 14.88C209.039 15.2267 208.946 15.56 208.893 15.88C208.839 16.2 208.813 16.4933 208.813 16.76C208.813 17.5333 209.013 18.1867 209.413 18.72C209.813 19.2533 210.319 19.7333 210.933 20.16C211.573 20.5867 212.239 21.0267 212.933 21.48C213.626 21.9067 214.279 22.4 214.893 22.96C215.533 23.52 216.053 24.2 216.453 25C216.853 25.8 217.053 26.7867 217.053 27.96C217.053 28.6267 216.973 29.3733 216.813 30.2C216.653 31.0267 216.386 31.9467 216.013 32.96C215.559 34.1867 214.879 35.2933 213.973 36.28C213.093 37.2933 212.066 38.0933 210.893 38.68C209.746 39.2667 208.533 39.56 207.253 39.56C206.373 39.56 205.493 39.4 204.613 39.08C203.306 38.6 202.426 37.9867 201.973 37.24C201.493 36.52 201.253 35.7867 201.253 35.04C201.253 34.5333 201.319 34.0533 201.453 33.6C201.586 33.1467 201.706 32.7467 201.813 32.4C201.999 31.8667 202.373 31.32 202.933 30.76C203.519 30.2 204.173 29.7333 204.893 29.36C205.613 28.96 206.279 28.76 206.893 28.76C207.159 28.76 207.413 28.8 207.653 28.88C208.159 29.0133 208.413 29.5467 208.413 30.48C208.413 30.7467 208.386 31.0133 208.333 31.28C208.279 31.5467 208.199 31.8267 208.093 32.12C207.906 32.6267 207.626 33.04 207.253 33.36C206.906 33.68 206.439 33.84 205.853 33.84C205.559 33.84 205.279 33.8267 205.013 33.8C204.773 33.7467 204.586 33.6133 204.453 33.4C204.426 33.3467 204.399 33.2933 204.373 33.24C204.373 33.1867 204.373 33.1333 204.373 33.08C204.373 32.6533 204.586 32.2933 205.013 32C205.226 31.84 205.426 31.84 205.613 32C205.799 32.16 205.986 32.3333 206.173 32.52C206.386 32.68 206.613 32.7333 206.853 32.68C207.279 32.5733 207.559 32.3333 207.693 31.96C207.826 31.5867 207.893 31.1733 207.893 30.72C207.893 30.5867 207.893 30.4533 207.893 30.32C207.893 30.1867 207.879 30.0533 207.853 29.92C207.826 29.4667 207.599 29.24 207.173 29.24C206.853 29.24 206.453 29.3733 205.973 29.64C205.519 29.9067 205.053 30.24 204.573 30.64C204.119 31.0133 203.719 31.4 203.373 31.8C203.026 32.1733 202.813 32.4667 202.733 32.68C202.493 33.3467 202.373 33.9733 202.373 34.56C202.373 35.9733 203.119 36.96 204.613 37.52C204.773 37.5733 204.959 37.6 205.173 37.6C205.706 37.6 206.426 37.48 207.333 37.24C208.266 37 209.253 36.6133 210.293 36.08C211.333 35.5467 212.306 34.8267 213.213 33.92C214.119 33.0133 214.813 31.8933 215.293 30.56C215.533 29.92 215.706 29.3333 215.813 28.8C215.919 28.2667 215.973 27.7733 215.973 27.32C215.973 26.3067 215.746 25.4667 215.293 24.8C214.866 24.1067 214.293 23.5333 213.573 23.08C212.879 22.6267 212.146 22.2133 211.373 21.84C210.599 21.4667 209.853 21.08 209.133 20.68C208.439 20.2533 207.866 19.76 207.413 19.2C206.986 18.6133 206.773 17.88 206.773 17C206.773 16.68 206.799 16.3333 206.853 15.96C206.933 15.56 207.053 15.1467 207.213 14.72C207.746 13.2267 208.519 12.16 209.533 11.52C210.573 10.88 211.666 10.56 212.813 10.56C213.293 10.56 213.773 10.6133 214.253 10.72C214.733 10.8 215.199 10.92 215.653 11.08C216.426 11.3467 216.946 11.68 217.213 12.08C217.506 12.48 217.653 12.92 217.653 13.4C217.653 13.6933 217.613 14 217.533 14.32C217.479 14.6133 217.386 14.9333 217.253 15.28ZM232.262 31.88C232.342 31.8 232.449 31.76 232.582 31.76C232.769 31.76 232.862 31.8533 232.862 32.04C232.862 32.1467 232.795 32.3067 232.662 32.52C232.555 32.7333 232.315 32.9867 231.942 33.28C231.569 33.6 231.182 33.8933 230.782 34.16C230.409 34.4267 229.889 34.56 229.222 34.56C228.502 34.56 227.929 34.4267 227.502 34.16C227.102 33.8933 226.809 33.6 226.622 33.28C226.462 32.9333 226.355 32.6667 226.302 32.48C225.982 32.72 225.649 33.04 225.302 33.44C224.982 33.8133 224.515 34.16 223.902 34.48C223.289 34.7733 222.409 34.92 221.262 34.92C220.622 34.92 220.035 34.7733 219.502 34.48C218.995 34.16 218.742 33.48 218.742 32.44C218.742 32.1467 218.755 31.84 218.782 31.52C218.835 31.1733 218.915 30.8 219.022 30.4C219.342 29.1467 219.715 28.16 220.142 27.44C220.569 26.72 221.209 26.1867 222.062 25.84C222.595 25.6267 223.249 25.4267 224.022 25.24C224.795 25.0533 225.475 24.8933 226.062 24.76C226.249 24.7067 226.409 24.5333 226.542 24.24C226.702 23.92 226.875 23.6267 227.062 23.36C227.169 23.2267 227.289 23.12 227.422 23.04C227.555 22.9333 227.702 22.88 227.862 22.88C227.995 22.88 228.169 22.9467 228.382 23.08C228.569 23.2133 228.689 23.4667 228.742 23.84C228.822 24.2133 228.862 24.56 228.862 24.88C228.835 25.04 228.769 25.24 228.662 25.48C228.582 25.6933 228.515 25.9333 228.462 26.2C228.409 26.5467 228.275 27.04 228.062 27.68C227.849 28.32 227.742 28.8533 227.742 29.28C227.742 29.6533 227.715 30.12 227.662 30.68C227.609 31.2133 227.609 31.5867 227.662 31.8C227.955 32.44 228.369 32.8667 228.902 33.08C229.435 33.2667 229.902 33.32 230.302 33.24C230.595 33.1867 230.929 33.0133 231.302 32.72C231.675 32.4267 231.995 32.1467 232.262 31.88ZM225.782 27.32C225.729 27.1067 225.595 26.88 225.382 26.64C225.195 26.4 224.955 26.28 224.662 26.28C224.609 26.28 224.502 26.3067 224.342 26.36C223.889 26.52 223.409 26.8267 222.902 27.28C222.395 27.7067 221.955 28.2667 221.582 28.96C221.209 29.6533 220.995 30.4667 220.942 31.4C220.942 31.6667 221.022 32.0133 221.182 32.44C221.369 32.8667 221.609 33.2267 221.902 33.52C222.195 33.8133 222.489 33.8933 222.782 33.76C223.422 33.4933 223.955 33.12 224.382 32.64C224.835 32.1333 225.209 31.52 225.502 30.8C225.635 30.4533 225.729 30.0933 225.782 29.72C225.862 29.32 225.902 28.9467 225.902 28.6C225.902 28.28 225.889 28.0133 225.862 27.8C225.835 27.56 225.809 27.4 225.782 27.32ZM243.34 31.4C243.127 31.88 242.66 32.4533 241.94 33.12C241.247 33.7867 240.42 34.3733 239.46 34.88C238.527 35.36 237.58 35.6 236.62 35.6C235.234 35.6 234.3 35.2 233.82 34.4C233.34 33.5733 233.1 32.4667 233.1 31.08C233.1 30.1467 233.18 29 233.34 27.64C233.5 26.28 233.74 24.8133 234.06 23.24C234.38 21.6667 234.78 20.08 235.26 18.48C235.74 16.96 236.26 15.48 236.82 14.04C237.38 12.6 238.22 11.3467 239.34 10.28C239.527 9.98667 239.767 9.84 240.06 9.84C240.3 9.84 240.514 9.94667 240.7 10.16C240.887 10.3467 240.967 10.5733 240.94 10.84C240.94 10.84 240.927 11.1733 240.9 11.84C240.9 12.5067 240.86 13.32 240.78 14.28C240.7 15.2133 240.58 16.1067 240.42 16.96C240.18 18.4 239.74 19.92 239.1 21.52C238.487 23.12 237.834 24.5733 237.14 25.88C236.58 26.9733 236.127 27.76 235.78 28.24C235.46 28.72 235.207 29.0667 235.02 29.28C234.86 29.4933 234.74 29.7733 234.66 30.12C234.634 30.3067 234.607 30.52 234.58 30.76C234.58 30.9733 234.58 31.2 234.58 31.44C234.58 31.92 234.607 32.3867 234.66 32.84C234.74 33.2667 234.834 33.5467 234.94 33.68C235.234 33.9733 235.554 34.1867 235.9 34.32C236.247 34.4533 236.594 34.52 236.94 34.52C237.234 34.52 237.5 34.48 237.74 34.4C238.647 34.1333 239.567 33.6933 240.5 33.08C241.46 32.4667 242.14 31.8667 242.54 31.28C242.727 31.0133 242.874 30.84 242.98 30.76C243.114 30.6533 243.22 30.6 243.3 30.6C243.434 30.6 243.5 30.6933 243.5 30.88C243.5 30.9333 243.487 31.0133 243.46 31.12C243.434 31.2 243.394 31.2933 243.34 31.4ZM239.7 12.52C239.434 12.4667 239.007 13.0533 238.42 14.28C237.86 15.5067 237.274 17.1733 236.66 19.28C236.474 19.92 236.26 20.7333 236.02 21.72C235.807 22.7067 235.594 23.7333 235.38 24.8C235.167 25.84 235.007 26.7867 234.9 27.64C235.754 25.9067 236.527 24.3467 237.22 22.96C237.914 21.5733 238.447 20.28 238.82 19.08C239.167 18.12 239.42 17.0933 239.58 16C239.767 14.9067 239.86 14.04 239.86 13.4C239.86 12.8933 239.807 12.6 239.7 12.52ZM250.945 27.48C250.945 28.04 250.825 28.7733 250.585 29.68C250.345 30.5867 250.025 31.44 249.625 32.24C249.252 33.0667 248.825 33.68 248.345 34.08C247.892 34.4533 247.452 34.72 247.025 34.88C246.598 35.0133 246.252 35.1467 245.985 35.28C245.878 35.3067 245.758 35.3333 245.625 35.36C245.518 35.4133 245.398 35.44 245.265 35.44C244.732 35.44 244.318 35.2933 244.025 35C243.918 34.8933 243.745 34.7867 243.505 34.68C243.292 34.5733 243.092 34.3867 242.905 34.12C242.718 33.8533 242.625 33.4133 242.625 32.8C242.625 32.16 242.705 31.5467 242.865 30.96C242.385 30.4 242.145 29.7867 242.145 29.12C242.145 28.72 242.238 28.3333 242.425 27.96C242.932 27 243.572 26.2533 244.345 25.72C245.118 25.1867 245.852 24.8133 246.545 24.6C247.265 24.3867 247.758 24.28 248.025 24.28C249.012 24.28 249.745 24.6 250.225 25.24C250.705 25.88 250.945 26.6267 250.945 27.48ZM249.305 27.68C249.305 27.0667 249.092 26.56 248.665 26.16C248.265 25.76 247.758 25.56 247.145 25.56C246.638 25.56 246.118 25.72 245.585 26.04C245.078 26.3333 244.638 26.7067 244.265 27.16C243.892 27.6133 243.652 28.0533 243.545 28.48C243.518 28.64 243.492 28.7867 243.465 28.92C243.465 29.0533 243.465 29.1867 243.465 29.32C243.758 28.68 244.065 28.1467 244.385 27.72C244.732 27.2933 244.985 27.0267 245.145 26.92C245.278 26.8133 245.452 26.76 245.665 26.76C245.958 26.76 246.105 26.84 246.105 27C246.105 27.1067 245.958 27.3067 245.665 27.6C245.398 27.8667 245.092 28.2267 244.745 28.68C244.398 29.1067 244.105 29.64 243.865 30.28C244.078 30.5467 244.358 30.7467 244.705 30.88C245.078 30.9867 245.438 31.04 245.785 31.04C246.158 31.04 246.505 30.9733 246.825 30.84C247.172 30.68 247.398 30.4667 247.505 30.2C247.532 30.12 247.545 30.0533 247.545 30C247.572 29.92 247.585 29.8533 247.585 29.8C247.585 29.5333 247.465 29.3733 247.225 29.32C247.012 29.24 246.798 29.2133 246.585 29.24H246.505C246.212 29.24 246.065 29.1733 246.065 29.04C246.065 28.96 246.092 28.88 246.145 28.8C246.225 28.72 246.292 28.6533 246.345 28.6C246.505 28.44 246.678 28.36 246.865 28.36C247.132 28.36 247.425 28.5333 247.745 28.88C248.038 29.28 248.185 29.6667 248.185 30.04C248.185 30.52 247.945 30.8933 247.465 31.16C247.012 31.4267 246.505 31.6133 245.945 31.72C245.385 31.8267 244.958 31.88 244.665 31.88C244.238 31.88 243.892 31.7867 243.625 31.6C243.598 31.6533 243.585 31.7733 243.585 31.96C243.585 32.7067 243.785 33.2133 244.185 33.48C244.585 33.72 244.918 33.9067 245.185 34.04C245.345 34.0933 245.478 34.12 245.585 34.12C245.958 34.12 246.345 33.96 246.745 33.64C247.172 33.32 247.545 32.88 247.865 32.32C248.105 31.8933 248.332 31.3867 248.545 30.8C248.758 30.2133 248.932 29.64 249.065 29.08C249.225 28.4933 249.305 28.0267 249.305 27.68ZM259.553 27.72C259.553 28.3333 259.499 28.7867 259.393 29.08C259.313 29.3733 259.193 29.6133 259.033 29.8C258.899 29.9867 258.753 30.2 258.593 30.44C258.433 30.68 258.299 31.04 258.193 31.52C258.113 31.9733 258.073 32.64 258.073 33.52C258.073 33.8667 258.206 34.1467 258.473 34.36C258.739 34.5733 259.046 34.68 259.393 34.68C259.553 34.68 259.633 34.7333 259.633 34.84C259.633 34.9733 259.526 35.1333 259.313 35.32C259.126 35.5333 258.953 35.64 258.793 35.64C258.206 35.64 257.779 35.4133 257.513 34.96C257.246 34.48 257.113 33.9733 257.113 33.44C257.113 32.56 257.139 31.8667 257.192 31.36C257.246 30.8267 257.299 30.3333 257.353 29.88C257.406 29.4 257.419 28.8133 257.393 28.12C257.366 27.64 257.299 27.2667 257.192 27C257.086 26.7067 256.806 26.56 256.353 26.56C256.113 26.56 255.939 26.6 255.833 26.68C255.753 26.76 255.646 26.8933 255.513 27.08C255.219 27.5067 254.966 28.1067 254.753 28.88C254.566 29.6267 254.406 30.4267 254.273 31.28C254.166 32.1067 254.059 32.8533 253.952 33.52C253.873 34.16 253.793 34.5867 253.713 34.8C253.633 34.9867 253.526 35.12 253.393 35.2C253.286 35.28 253.166 35.32 253.033 35.32C252.926 35.32 252.819 35.2933 252.713 35.24C252.633 35.2133 252.566 35.1867 252.513 35.16C252.379 35.08 252.313 34.9467 252.313 34.76C252.313 34.5733 252.353 34.36 252.433 34.12C252.539 33.8533 252.619 33.6133 252.673 33.4C252.726 33.1867 252.806 32.8133 252.913 32.28C253.046 31.72 253.179 31.1467 253.313 30.56C253.446 29.9467 253.553 29.4267 253.633 29C253.739 28.5467 253.793 28.32 253.793 28.32C253.659 28.32 253.526 28.3333 253.393 28.36C253.259 28.36 253.126 28.36 252.993 28.36C252.593 28.36 252.393 28.2 252.393 27.88C252.393 27.6667 252.473 27.3467 252.632 26.92C252.793 26.4933 253.086 25.9333 253.513 25.24C253.646 25.0267 253.913 24.76 254.313 24.44C254.713 24.12 255.046 23.9867 255.313 24.04C255.419 23.9867 255.513 23.96 255.593 23.96C255.673 23.96 255.739 23.96 255.793 23.96C256.086 23.96 256.246 24.0667 256.273 24.28C256.326 24.4667 256.339 24.6667 256.312 24.88C256.286 25.0667 256.299 25.1467 256.353 25.12C256.726 24.96 257.099 24.88 257.473 24.88C258.033 24.88 258.513 25.1067 258.913 25.56C259.339 25.9867 259.553 26.7067 259.553 27.72Z" fill="white"/>
<g clip-path="url(#clip0_34_50)">
<path d="M22.2042 34.0477C22.1323 33.879 22.1536 33.601 22.1896 33.3865C22.4368 31.9273 22.8966 30.8376 23.4323 30.0219C22.4088 28.8661 21.2879 28.6943 21.2332 28.6871L21.0219 28.6626C20.6501 29.6236 20.0775 30.9152 19.6563 32.0975C19.5324 32.4448 19.3622 32.8003 19.1607 32.942C18.9593 33.0836 18.4951 33.1669 18.1025 33.2814C16.2687 33.8166 14.9286 35.5096 14.9294 37.5161C14.9294 39.9514 16.9041 41.9266 19.3397 41.9266C21.7751 41.9266 23.7498 39.9525 23.7498 37.5166C23.7504 36.3114 23.2666 35.2207 22.4831 34.4237C22.351 34.2903 22.2765 34.2154 22.2042 34.0477ZM19.3398 39.9004C18.0232 39.9004 16.9557 38.8326 16.9557 37.516C16.9557 36.1999 18.0232 35.1321 19.3398 35.1321C20.6569 35.1316 21.7242 36.1988 21.7237 37.516C21.7236 38.8326 20.6559 39.9004 19.3398 39.9004Z" fill="white"/>
<path d="M32.3998 40.1684C32.9563 39.4297 33.2859 38.5118 33.2869 37.516C33.2864 35.5095 31.9464 33.8165 30.1123 33.2813C29.7202 33.1668 29.2564 33.0835 29.0544 32.9419C28.8534 32.7998 28.6832 32.4453 28.5593 32.0974C27.9517 30.393 27.0282 28.4563 26.8496 27.6223C26.8496 27.6223 25.6579 11.7678 25.4189 9.74099C25.1805 7.7148 24.8234 7 24.1075 7C23.3927 6.99895 23.0346 7.7148 22.7961 9.74099C22.5588 11.7678 21.3655 27.6223 21.3655 27.6223C21.3655 27.6223 25.1207 28.0388 26.0254 33.3865C26.0619 33.6009 26.0827 33.8795 26.0103 34.0476C25.939 34.2158 25.8641 34.2902 25.7318 34.4245C24.9494 35.22 24.4652 36.3112 24.4652 37.5159C24.4658 39.9524 26.4399 41.9265 28.8758 41.9265C29.7088 41.9265 30.4881 41.6953 31.1535 41.2934C32.6622 42.6533 33.9215 43 33.9215 43L34.6368 41.6881C33.5508 41.3627 32.5669 40.348 32.3998 40.1684ZM24.1075 26.907C23.6468 26.907 23.2735 26.5332 23.2735 26.0725C23.2735 25.6117 23.6473 25.2379 24.1075 25.2384C24.5682 25.2384 24.9415 25.6117 24.9415 26.0725C24.9426 26.5327 24.5683 26.907 24.1075 26.907ZM28.8758 39.9003C27.5592 39.9003 26.4914 38.8325 26.4919 37.5165C26.4925 36.1988 27.5592 35.132 28.8752 35.132C30.1924 35.1315 31.2601 36.1987 31.2596 37.5165C31.2596 38.8331 30.1929 39.8998 28.8758 39.9003Z" fill="white"/>
<path d="M10.3416 7.31885H2.30549C1.78595 7.31885 1.36316 7.74157 1.36316 8.26111V10.1395C1.36316 10.5757 1.71817 10.9308 2.15446 10.9308H7.91389C8.66174 10.9308 9.27036 11.5399 9.27036 12.2885C9.27036 13.0362 8.66174 13.6442 7.91389 13.6442H2.15453C1.71824 13.6442 1.36323 13.9993 1.36323 14.4355V15.2675C1.36323 15.7038 1.71824 16.0588 2.15453 16.0588H7.91396C8.66181 16.0588 9.27043 16.6674 9.27043 17.4155C9.27043 18.1636 8.66181 18.7722 7.91396 18.7722H2.15453C1.71824 18.7722 1.36323 19.1273 1.36323 19.5636V20.3966C1.36323 20.8328 1.71824 21.1878 2.15453 21.1878H7.91396C8.66181 21.1878 9.27043 21.7965 9.27043 22.5445C9.27043 23.2921 8.66181 23.9002 7.91396 23.9002H2.15453C1.71824 23.9002 1.36323 24.2553 1.36323 24.6915V25.5245C1.36323 25.9608 1.71824 26.3159 2.15453 26.3159H7.91396C8.66181 26.3159 9.27043 26.9239 9.27043 27.6715C9.27043 28.4196 8.66181 29.0282 7.91396 29.0282H2.15453C1.71824 29.0282 1.36323 29.3833 1.36323 29.8195V30.6525C1.36323 31.0888 1.71824 31.4438 2.15453 31.4438H7.91396C8.66181 31.4438 9.27043 32.0525 9.27043 32.8005C9.27043 33.5481 8.66181 34.1562 7.91396 34.1562H2.15453C1.71824 34.1562 1.36323 34.5113 1.36323 34.9475V35.7805C1.36323 36.2168 1.71824 36.5718 2.15453 36.5718H7.91396C8.66181 36.5718 9.27043 37.1799 9.27043 37.9275C9.27043 38.6756 8.66181 39.2842 7.91396 39.2842H2.15453C1.71824 39.2842 1.36323 39.6393 1.36323 40.0755V41.7394C1.36323 42.259 1.78595 42.6817 2.30556 42.6817H10.3416C11.6947 42.6817 12.7953 41.5806 12.7953 40.2276V9.77296C12.7953 8.41987 11.6947 7.31885 10.3416 7.31885Z" fill="white"/>
</g>
<defs>
<clipPath id="clip0_34_50">
<rect width="36" height="36" fill="white" transform="translate(0 7)"/>
</clipPath>
</defs>
</svg>
